<svg width="373" height="560" viewBox="0 0 373 560" fill="none" xmlns="http://www.w3.org/2000/svg">
<mask id="mask0_17_1336" style="mask-type:alpha" maskUnits="userSpaceOnUse" x="0" y="-252" width="375" height="812">
<rect y="-252" width="375" height="812" fill="white"/>
</mask>
<g mask="url(#mask0_17_1336)">
<g opacity="0.2">
<path d="M-24.2472 26.8659C-19.5445 28.958 -14.2302 29.8785 -9.21123 30.9769C-3.93917 32.1275 1.44888 32.7761 6.7842 33.7385C12.1195 34.7008 17.3283 35.8306 22.6004 36.2385C27.767 36.6674 32.9125 36.9185 38.0792 37.2218C42.7828 37.6173 47.5196 37.3177 52.1345 36.3327C53.9903 35.8933 56.2678 35.0983 57.1957 33.2887C58.1236 31.479 57.1957 29.2509 56.078 27.6818C54.7432 25.7843 53.2776 23.9807 51.6916 22.2842C49.8042 20.1921 48.0223 17.9849 45.9662 16.0601C42.3284 12.65 38.8911 9.04111 35.285 5.59959L34.2306 4.55353C34.232 4.52932 34.2284 4.50506 34.2201 4.48227C34.2117 4.45947 34.1987 4.43861 34.1819 4.42097C34.1651 4.40333 34.1449 4.38929 34.1224 4.37971C34.1 4.37013 34.0758 4.3652 34.0513 4.36524C27.8619 -2.18306 21.2824 -8.23971 14.8505 -14.537C11.4658 -17.853 7.73318 -20.761 4.39069 -24.1188C1.77575 -26.8699 -1.73546 -30.7194 -6.11127 -29.778C-8.11465 -29.3386 -9.60137 -27.8742 -11.0248 -26.5038C-12.9122 -24.6732 -14.6626 -22.7066 -16.4234 -20.761C-19.7133 -16.8908 -22.5765 -12.6826 -24.9642 -8.20833C-29.4243 -0.488446 -34.4539 8.96789 -33.062 18.1941C-32.4083 22.4201 -27.7689 25.2759 -24.2472 26.8659ZM-1.92525 30.004C-4.45011 29.6916 -6.9562 29.2446 -9.43266 28.6651C-9.73126 27.7719 -9.93274 26.8496 -10.0337 25.914C-10.0518 25.1107 -9.9061 24.3121 -9.60532 23.5661C-9.30453 22.8201 -8.85488 22.1421 -8.28335 21.5728C-7.22894 20.464 -5.70004 19.3343 -4.2344 20.1502C-3.17999 20.7569 -2.60007 21.9703 -1.58783 22.6084C0.383918 23.8532 2.30295 21.1858 4.16926 22.6084C6.27808 24.2507 5.90904 28.4454 5.37129 31.071C2.97777 30.684 0.542084 30.276 -1.90415 30.004L-1.92525 30.004ZM27.5983 34.4184C22.4949 33.9791 17.5287 33.3723 12.4886 32.4937C12.0668 32.41 11.645 32.3367 11.2233 32.2531C10.2954 26.8868 15.4409 21.6356 20.713 21.5938C26.5544 21.5938 30.0656 29.5019 29.0534 34.5439L27.5983 34.4184ZM48.2964 34.8368L48.0328 34.8368C45.7497 35.2003 43.4384 35.3614 41.1264 35.318C39.1968 35.2134 37.2778 35.1088 35.3482 34.9833C35.2006 33.1317 34.6312 31.8451 35.7595 29.889C36.3921 28.8429 37.8683 27.3366 39.3023 27.3889C40.7363 27.4412 41.3057 28.6965 42.1808 29.4078C43.4145 30.3702 44.0788 30.0145 45.439 29.8576C47.7587 29.5961 48.2648 32.6087 48.3491 34.8368L48.2964 34.8368ZM40.8417 13.8007C38.7016 13.4205 36.7542 12.3329 35.3166 10.7148C34.3329 9.54544 33.8286 8.05181 33.9037 6.53058L34.7999 7.45111C36.9088 9.54321 38.8805 11.6772 40.8944 13.8007L40.8417 13.8007ZM29.2432 1.84425C27.6039 4.08396 25.1835 5.63876 22.4528 6.2063C19.6901 6.47452 16.9312 5.65981 14.7661 3.93636C12.2039 2.13715 11.0862 -1.4822 11.2865 -4.5053C11.3808 -6.28469 12.1314 -7.96757 13.3954 -9.23346C14.0753 -9.94316 14.8656 -10.54 15.7362 -11.0013C20.2385 -6.70201 24.8357 -2.49687 29.2959 1.84425L29.2432 1.84425ZM13.2583 -13.3235L14.8821 -11.7649C13.1484 -10.671 11.7026 -9.18279 10.6644 -7.42379C9.23044 -4.09733 10.1794 0.62037 12.4148 3.41334C13.5553 4.72115 14.9541 5.783 16.5246 6.53328C18.0952 7.28355 19.8042 7.70629 21.546 7.77538C23.2967 7.74008 25.0117 7.2779 26.5398 6.42961C28.0679 5.58133 29.362 4.373 30.3081 2.91123L33.2183 5.78788C32.8556 6.747 32.7621 7.78581 32.9478 8.79352C33.1335 9.80123 33.5914 10.74 34.2727 11.5098C35.2421 12.7036 36.5165 13.6176 37.9632 14.1563C39.3234 14.7316 40.7363 15.6208 42.2652 15.2547C43.3126 16.3495 44.367 17.4444 45.4284 18.5393C46.6094 19.7527 47.843 20.9138 49.0345 22.1168C50.5529 23.8323 52.0501 25.5374 53.4209 27.3471C54.7916 29.1567 56.8477 31.8033 54.1379 33.3723C52.6675 34.1145 51.0603 34.5522 49.4141 34.659C49.5154 32.7427 49.0063 30.8433 47.959 29.23C47.6948 28.8686 47.321 28.6006 46.8922 28.4651C46.4635 28.3296 46.0023 28.3337 45.576 28.4768C45.1923 28.6577 44.789 28.7945 44.374 28.8848C43.5115 28.7675 42.7019 28.4041 42.0438 27.8387C41.5919 27.3739 41.0898 26.96 40.5465 26.6044C36.5608 24.575 32.1112 31.1652 33.6717 34.8473C32.2377 34.7531 30.8143 34.659 29.3908 34.5439C30.8986 31.8033 30.1816 28.3199 28.8109 25.5897C27.2714 22.5143 24.5932 20.0979 21.0082 20.0247C14.7661 19.9305 9.07228 25.7466 9.62058 31.9392C8.35528 31.6882 7.08998 31.4476 5.82468 31.207C6.72094 28.2571 7.2376 24.0625 5.02333 21.7925C4.61073 21.3462 4.0721 21.0336 3.47773 20.8955C2.88337 20.7574 2.26085 20.8003 1.69139 21.0184C0.563167 21.3741 -0.164372 21.8344 -1.26096 20.9557C-2.00959 20.3594 -2.52626 19.5121 -3.36979 18.9577C-6.03745 17.0853 -9.25341 19.7109 -10.6769 22.0226C-11.6527 23.6138 -11.9808 25.514 -11.5942 27.3366L-11.3939 28.2048C-12.986 27.8283 -14.5571 27.4308 -16.1704 27.0437C-17.4778 26.7299 -18.7853 26.3847 -20.0822 25.9977C-20.0822 25.2236 -19.9241 24.2298 -19.9452 23.6545C-19.9452 22.5248 -19.9452 21.4578 -19.9452 20.328C-19.8462 17.8512 -19.5785 15.3839 -19.1438 12.9429C-18.8144 10.3481 -18.2606 7.78632 -17.4884 5.28577C-16.5821 3.07949 -15.5252 0.937083 -14.3251 -1.12654C-12.5959 -4.34839 -11.0354 -7.60162 -9.15852 -10.6875C-8.10411 -9.12886 -6.62793 -7.72715 -4.63509 -7.73761C-1.97797 -7.73761 -0.596685 -9.42175 0.721331 -11.4511C2.37676 -13.993 5.41346 -9.54728 7.82807 -11.0327C9.62057 -12.0787 9.85254 -14.3173 9.93689 -16.263C11.1284 -15.332 12.2461 -14.3591 13.311 -13.3235L13.2583 -13.3235ZM4.00055 -21.556C5.64544 -19.9241 7.43794 -18.4178 9.20935 -16.9324C8.85085 -14.5579 8.33419 -10.9176 5.42401 -12.0473C4.05327 -12.5704 2.98832 -14.2441 1.36452 -13.6897C-0.259272 -13.1352 -0.818113 -10.6875 -2.33647 -9.72511C-5.18338 -7.89451 -6.70173 -10.1958 -8.38879 -11.995C-7.71397 -13.0411 -6.99697 -14.0872 -6.21671 -15.0286C-4.68242 -16.9305 -3.00458 -18.714 -1.1977 -20.3635C-0.311961 -21.234 0.643674 -22.0316 1.65976 -22.7485C1.9339 -22.9368 2.1975 -23.0832 2.44002 -23.2506C3.01994 -22.6125 3.5577 -22.0476 4.05327 -21.556L4.00055 -21.556ZM-29.4138 20.6732C-32.1342 17.7861 -31.4066 12.2107 -30.4682 8.68545C-29.1419 4.22949 -27.317 -0.0651559 -25.0274 -4.11826C-22.8026 -8.22925 -20.5778 -12.6645 -17.6465 -16.3362C-14.7868 -20.0582 -11.5309 -23.4636 -7.9354 -26.4934C-4.40311 -29.3386 -0.923552 -26.5561 1.8601 -23.7841C1.28886 -23.5768 0.729219 -23.3394 0.183576 -23.0728C-0.786772 -22.5106 -1.71369 -21.8778 -2.58952 -21.1794C-4.75172 -19.3799 -6.71037 -17.3526 -8.43097 -15.1332C-11.9843 -10.6875 -14.3779 -5.50951 -17.0877 -0.488447C-18.2921 1.62503 -19.2777 3.85402 -20.0295 6.16446C-20.7992 8.72729 -21.0839 11.468 -21.5584 14.0831C-21.92 16.4517 -22.1138 18.8426 -22.1383 21.2381C-22.2121 22.5666 -22.0645 23.8742 -22.054 25.2027L-22.054 25.3073C-24.8313 24.3394 -27.3487 22.7543 -29.4138 20.6732Z" fill="url(#paint0_linear_17_1336)"/>
<path d="M10.0392 16.9763C10.4403 15.4819 10.5536 13.9219 10.3729 12.3832C10.3412 10.325 9.97295 8.2867 9.28356 6.35303C8.60979 4.71164 7.53094 3.2778 6.15285 2.19217C4.75211 1.23263 3.12485 0.677151 1.44206 0.584116C1.39997 0.524706 1.34612 0.475042 1.28404 0.43836C1.22196 0.401678 1.15303 0.378797 1.08174 0.371212C1.01045 0.363628 0.938396 0.371506 0.870275 0.394335C0.802155 0.417164 0.739492 0.454433 0.686373 0.503714C0.629838 0.504406 0.574688 0.521753 0.527523 0.553684C0.480359 0.585615 0.443169 0.630775 0.420398 0.683773C0.397628 0.736769 0.390242 0.795359 0.399119 0.852541C0.407996 0.909723 0.432764 0.963079 0.47046 1.00623C0.280751 2.10994 0.334405 3.24312 0.62749 4.32285C0.956935 6.05263 1.47714 7.73849 2.17812 9.34803C3.72875 12.7451 6.65337 14.5943 9.27374 17.0366C9.32399 17.0919 9.38578 17.1349 9.4545 17.1624C9.52323 17.1899 9.59712 17.2012 9.67068 17.1954C9.74425 17.1896 9.81559 17.1669 9.8794 17.1289C9.94321 17.091 9.99785 17.0388 10.0392 16.9763ZM3.46378 9.94101C2.77349 8.57163 2.26204 7.11525 1.94258 5.6093C1.63081 4.4852 1.41733 3.33492 1.30466 2.17207C2.15849 3.25751 3.15953 4.24245 3.96429 5.36809C4.85018 6.72044 5.62489 8.14579 6.28043 9.62945C6.38838 9.8606 6.75151 9.68975 6.673 9.44854C6.19077 7.96416 5.53151 6.5464 4.71017 5.22739C3.88578 3.94094 2.81604 2.7952 1.99166 1.50875C5.01441 2.51379 7.45813 4.14194 8.48861 7.53897C8.90077 9.13174 9.13778 10.7667 9.19523 12.4134C9.32647 13.5506 9.36259 14.6971 9.30319 15.8406C7.11463 14.2426 4.61203 12.3933 3.46378 9.96111L3.46378 9.94101Z" fill="url(#paint1_linear_17_1336)"/>
<path d="M31.9665 23.811C33.4661 24.4914 35.0638 24.7368 36.5242 25.5398C36.6015 25.5847 36.6867 25.6092 36.7734 25.6116C36.8602 25.6139 36.9463 25.594 37.0254 25.5533C37.1045 25.5125 37.1745 25.4521 37.2303 25.3764C37.286 25.3007 37.3261 25.2117 37.3475 25.116C37.4552 23.5508 37.3023 21.9766 36.8966 20.4761C36.6569 18.212 35.6771 16.1335 34.1522 14.6538C32.5236 13.5125 30.7107 12.754 28.8202 12.4231C27.471 12.0074 26.0428 12.0657 24.7232 12.5904C24.632 12.5752 24.5388 12.5891 24.4541 12.6304C24.3693 12.6718 24.2963 12.739 24.243 12.8246L24.0862 12.8916C24.0256 12.9339 23.9778 12.9961 23.9488 13.0699C23.9199 13.1438 23.9112 13.2258 23.9239 13.3054C23.9366 13.3849 23.9701 13.4582 24.0201 13.5158C24.07 13.5733 24.134 13.6123 24.2038 13.6277C24.8354 16.6119 26.288 19.2887 28.3498 21.268C29.4232 22.3378 30.6455 23.1972 31.9665 23.811ZM29.8004 21.1676C27.761 19.5522 26.2373 17.2274 25.4584 14.5423C26.2425 14.9327 27.1638 15.1781 27.7911 15.5127C29.6971 16.5132 31.4248 17.9046 32.8878 19.6172C33.1329 19.8961 33.5739 19.4945 33.3681 19.1711C32.4435 17.7208 31.2486 16.5211 29.869 15.6577C29.1339 15.1892 28.389 14.7319 27.6343 14.3081C26.903 14.0231 26.1864 13.6917 25.4878 13.3154C28.3688 13.0551 31.2409 13.9292 33.6229 15.7915C34.8723 17.1169 35.6589 18.9112 35.8381 20.8441C36.0668 21.8954 36.2209 22.9659 36.2987 24.0452C34.0836 23.1083 31.8195 22.796 29.8004 21.1676Z" fill="url(#paint2_linear_17_1336)"/>
<path d="M22.2207 12.4698C22.0668 11.8172 21.765 11.1987 21.3334 10.6517C20.9018 10.1047 20.3494 9.6404 19.7095 9.28674C19.285 8.98111 18.7551 8.81265 18.2075 8.80927C18.2075 8.80927 18.1354 8.80927 18.0873 8.80927C17.4986 8.74179 16.9001 8.80375 16.345 8.98965C15.6895 9.19143 15.1099 9.54952 14.6706 10.0242C14.2314 10.499 13.9494 11.0718 13.8561 11.6793C13.7628 12.2868 13.8618 12.9052 14.142 13.4661C14.4222 14.027 14.8728 14.5085 15.4439 14.8571C17.6908 16.1834 22.5452 15.5574 22.2207 12.4698ZM16.4291 10.2204C16.7538 10.1644 17.0587 10.0407 17.3183 9.85969C17.6991 9.77079 18.0988 9.76591 18.4822 9.84547C18.8657 9.92503 19.2211 10.0866 19.5172 10.3159C19.6734 10.4539 19.8176 10.613 19.9618 10.751L20.2141 11.0268C20.5166 11.4284 20.7475 11.8685 20.899 12.3319C20.9555 12.6404 20.9028 12.9569 20.7479 13.238C20.5931 13.519 20.3437 13.751 20.0339 13.9022C19.5861 14.1825 19.069 14.3643 18.5257 14.4326C17.9823 14.5008 17.4283 14.4536 16.9098 14.2948C16.438 14.1655 16.0196 13.9169 15.7064 13.5796C15.3932 13.2424 15.199 12.8314 15.1479 12.3976C15.0967 11.9638 15.1908 11.5263 15.4186 11.1392C15.6463 10.7522 15.9977 10.4328 16.4291 10.2204Z" fill="url(#paint3_linear_17_1336)"/>
<path d="M45.7816 22.5683C45.6587 21.9141 45.416 21.2942 45.0683 20.7462C44.7206 20.1981 44.2751 19.7333 43.7589 19.38C43.4196 19.0762 42.9966 18.9076 42.5588 18.9018C42.5588 18.9018 42.491 18.9018 42.462 18.9018C41.9862 18.8409 41.5041 18.9103 41.0587 19.1037C40.5411 19.3087 40.0844 19.6651 39.7378 20.1344C39.3913 20.6037 39.1681 21.168 39.0924 21.7665C39.0167 22.3649 39.0913 22.9747 39.3082 23.5299C39.5251 24.0852 39.876 24.5648 40.3231 24.917C42.1426 26.2986 46.0526 25.6716 45.7816 22.5683ZM41.1554 20.3153C41.4176 20.2678 41.6643 20.147 41.8716 19.9645C42.1793 19.8677 42.5044 19.8589 42.8161 19.9389C43.1278 20.0188 43.4157 20.185 43.6524 20.4215L44.0202 20.8573L44.2138 21.1229C44.4587 21.5296 44.6478 21.9737 44.7751 22.4408C44.82 22.7483 44.7771 23.0635 44.6523 23.3432C44.5275 23.6229 44.327 23.8534 44.0783 24.003C43.711 24.2862 43.2865 24.467 42.8414 24.53C42.3962 24.5929 41.9439 24.5361 41.5232 24.3644C41.1523 24.2275 40.8252 23.976 40.5813 23.64C40.3373 23.304 40.1869 22.8978 40.1481 22.4703C40.1093 22.0427 40.1837 21.6119 40.3623 21.2296C40.541 20.8474 40.8164 20.5299 41.1554 20.3153Z" fill="url(#paint4_linear_17_1336)"/>
<path d="M-6.40031 -0.724164C-5.11465 -1.70168 -3.57036 -2.35176 -1.92297 -2.60894C-0.646677 -2.79742 0.639912 -2.99532 1.93679 -3.10841C2.96607 -3.19322 5.60099 -3.1084 5.39514 -4.71046C5.18929 -6.31252 2.6264 -6.34079 1.43245 -6.35964C0.284697 -6.37686 -0.863169 -6.3328 -2.00532 -6.22771C-2.67434 -6.22771 -3.33308 -6.16174 -3.97123 -6.12404C-5.99636 -6.07024 -7.95309 -5.44121 -9.57046 -4.32408C-10.7644 -3.45709 -12.2877 -1.41211 -10.8159 -0.121037C-9.60135 0.972132 -7.51192 -0.00795022 -6.40031 -0.724164ZM-10.1777 -1.56289C-10.3424 -3.25919 -6.95612 -4.54083 -5.55631 -4.82355C-4.75348 -4.97433 -3.90947 -5.09684 -3.04488 -5.19108C-2.36556 -5.24762 -1.67595 -5.28532 -0.986341 -5.31359C-0.296729 -5.34186 0.6502 -5.42668 1.47362 -5.40783C2.09883 -5.42023 2.72276 -5.35041 3.32631 -5.2005L3.24397 -4.07906C2.35929 -3.95001 1.46128 -3.91523 0.567861 -3.9754C-0.286434 -3.90001 -1.13044 -3.79635 -1.97444 -3.69269C-3.15599 -3.6115 -4.30762 -3.31344 -5.36074 -2.81627C-5.83102 -2.53212 -6.27821 -2.21717 -6.6988 -1.87388C-7.23402 -1.44038 -9.98217 0.500938 -10.1777 -1.56289Z" fill="url(#paint5_linear_17_1336)"/>
<path d="M9.30923 22.21C10.4811 21.9658 10.6701 20.6384 10.2543 19.5765C9.69669 18.1217 8.17517 17.1978 6.95606 16.6244C5.73695 16.0509 4.6974 15.5625 3.62005 14.9996C2.40094 13.7784 -0.868917 10.2741 -1.30364 13.4386C-1.49265 14.8085 -0.358595 16.1147 0.473046 16.9111C1.95014 18.3993 3.55515 19.7191 5.26443 20.8508C6.28508 21.4985 8.10902 22.4436 9.30923 22.21ZM3.41214 18.2916C2.50706 17.6138 1.63627 16.88 0.803811 16.0934C0.338987 15.695 -0.039112 15.183 -0.301892 14.5961C-0.386946 13.3218 -0.150684 12.8227 0.406893 13.0776C0.398605 13.0956 0.394283 13.1157 0.394283 13.136C0.394283 13.1563 0.398605 13.1763 0.406893 13.1944C1.64981 15.0514 3.35267 16.4551 5.30223 17.2297C6.34966 17.613 7.35723 18.1221 8.30748 18.7482C8.76853 19.049 9.16023 19.4673 9.45098 19.9694L8.69494 21.3605C8.38308 21.5304 7.25848 20.9145 6.94661 20.7764C5.66015 20.1607 4.46753 19.3223 3.41214 18.2916Z" fill="url(#paint6_linear_17_1336)"/>
<path d="M112.324 10.5089C110.572 9.38268 108.692 8.64589 107.237 7.08809C106.175 6.03553 105.548 4.63562 104.338 3.74094C102.8 2.81285 101.207 1.97634 99.5689 1.23585C96.3827 -0.585087 94.694 -3.96381 91.7733 -6.13209C90.6376 -6.97671 89.4039 -7.68345 88.0985 -8.23722C86.3389 -8.80436 84.6272 -9.50825 82.9793 -10.3423C79.6975 -12.4475 77.9132 -16.4577 74.9607 -18.9628C72.5391 -21.068 69.937 -22.7836 66.7083 -23.1731C63.4724 -23.5377 60.1976 -23.0095 57.2453 -21.6469C56.6611 -21.3732 56.0982 -21.089 55.546 -20.7943C54.433 -22.0324 53.2181 -23.1767 51.9136 -24.2151C50.3677 -25.7502 48.6625 -27.1191 46.8263 -28.2991C45.7643 -28.8885 44.7765 -29.4358 43.7782 -30.0989C43.3309 -30.4658 42.8147 -30.7413 42.2594 -30.9094C41.2929 -31.0884 40.8575 -30.5515 40.5176 -29.8569L39.3918 -30.9094C37.1548 -33.2714 34.5693 -35.2836 31.7236 -36.8774C30.2261 -37.6142 27.4753 -39.172 25.8397 -37.7721C24.4166 -36.5091 24.5653 -33.2251 25.3087 -31.7199C26.5407 -29.1937 30.4067 -27.9201 32.6689 -26.5518C34.793 -25.2782 36.8003 -23.8994 38.882 -22.6047C36.9066 -23.4889 34.9205 -24.3625 32.9663 -25.3098C29.9604 -26.7842 26.7661 -27.8465 23.4713 -28.4675C21.2516 -28.8674 19.1699 -29.0674 18.8938 -26.2466C18.6283 -23.6783 20.6356 -22.1416 22.9403 -21.7311C25.7017 -21.2574 28.3993 -20.8153 31.1183 -20.1733C30.7678 -18.9734 30.5978 -17.4787 31.3944 -16.5525C32.5202 -15.2473 35.2922 -14.5842 36.8641 -14.0158C38.9882 -13.2579 41.0062 -12.6264 43.1197 -12.037C44.8975 -11.4009 46.7565 -11.0147 48.6425 -10.8897C48.549 -7.76764 49.3797 -4.68678 51.0321 -2.0271C52.6282 0.476587 55.0659 2.34063 57.9144 3.23572C59.465 3.82515 61.1006 4.28828 62.6512 4.79351C64.5315 5.51778 66.169 6.75039 67.3775 8.35117C69.5016 10.7194 71.4133 12.5614 74.5995 13.2351C77.7858 13.9087 81.2269 13.814 84.3175 15.1928C86.8984 16.3401 89.2137 18.119 92.0919 18.4979C95.5861 18.9715 98.9317 18.7821 102.373 19.8452C105.378 20.7819 108.172 22.2976 111.411 22.245C113.535 22.245 116.636 21.5293 117.783 19.4768C118.93 17.4243 117.21 14.8981 115.744 13.3929C114.719 12.3059 113.571 11.3383 112.324 10.5089ZM42.6099 -29.4885C43.2371 -29.1458 43.8247 -28.7364 44.3623 -28.2675C45.8095 -27.4453 47.1875 -26.509 48.4832 -25.4677C49.6302 -24.4151 50.6073 -23.2994 51.7225 -22.31C52.5472 -21.5752 53.3076 -20.7724 53.9953 -19.9101C53.613 -19.647 53.2519 -19.3839 52.9332 -19.0891C52.5934 -19.7838 51.988 -20.1417 51.2658 -20.6259C49.917 -21.5942 48.6212 -22.731 47.3467 -23.7836C45.2226 -25.5624 43.1622 -27.4781 41.1336 -29.3937C41.3527 -29.5283 41.6015 -29.6082 41.8587 -29.6266C42.1158 -29.6449 42.3736 -29.6011 42.6099 -29.499L42.6099 -29.4885ZM30.9271 -29.3937C29.607 -29.9684 28.3623 -30.7 27.2204 -31.5725C26.2964 -32.4883 25.8716 -35.4565 26.8381 -36.5512C28.3144 -38.2353 33.2105 -34.7302 34.4744 -33.7198C36.6941 -31.9936 38.574 -29.9095 40.6238 -28.0043C42.6736 -26.0992 44.5853 -24.0678 46.7095 -22.2574C48.4088 -20.8259 50.1825 -19.5312 51.9243 -18.1734C51.6233 -17.8398 51.343 -17.4883 51.0852 -17.1208C50.8303 -17.2366 50.5754 -17.3629 50.3205 -17.4892C49.6514 -17.984 48.3982 -18.7313 48.2495 -18.8155C47.0918 -19.4154 45.9448 -20.047 44.8402 -20.7417C42.5993 -22.1521 40.3158 -23.4678 38.0855 -24.9519C35.8551 -26.436 33.3592 -28.057 30.874 -29.4043L30.9271 -29.3937ZM25.7442 -22.9099C24.2785 -23.1415 22.7916 -23.0678 21.549 -23.9625C20.4869 -24.6782 19.8178 -26.0676 20.9011 -27.1202C21.7614 -27.9307 22.7597 -27.5412 23.928 -27.3202C25.3087 -27.0465 26.7107 -26.6781 28.0595 -26.2676C30.9496 -25.2504 33.7669 -24.0407 36.4923 -22.6468C39.1263 -21.4153 41.8027 -20.1838 44.3942 -18.8892C46.3229 -17.7488 48.3443 -16.7701 50.4374 -15.963L50.1506 -15.342L50.0444 -15.0578C46.6245 -17.9945 41.5478 -19.1312 37.2995 -20.1943C34.6762 -20.8469 32.0741 -21.6574 29.4402 -22.2258C28.1763 -22.4573 26.9337 -22.731 25.6911 -22.9205L25.7442 -22.9099ZM40.0397 -14.4894C38.5634 -14.9315 37.119 -15.542 35.6958 -16.0683C34.5169 -16.5525 32.7326 -16.963 32.1166 -18.1734C31.8983 -18.7768 31.8044 -19.4175 31.8405 -20.0575C31.9373 -20.0379 32.033 -20.0133 32.1272 -19.9838C35.1966 -19.2049 38.3085 -18.626 41.3248 -17.6471C43.1598 -17.1044 44.9583 -16.447 46.7095 -15.6788C47.676 -15.2262 48.5575 -14.6263 49.524 -14.1842C49.2648 -13.7231 49.065 -13.2315 48.9292 -12.7211C48.8941 -12.7272 48.8582 -12.7272 48.823 -12.7211C45.8381 -13.0763 42.8842 -13.6533 39.9866 -14.4473L40.0397 -14.4894ZM116.116 17.8348C115.893 19.5925 113.068 20.0451 111.708 20.0978C109.106 20.1925 106.833 19.1084 104.476 18.2347C106.249 16.6138 108.724 14.3824 108.597 11.9194C108.606 11.8502 108.601 11.78 108.583 11.7128C108.564 11.6455 108.533 11.5824 108.49 11.5272C108.447 11.472 108.393 11.4257 108.332 11.3909C108.272 11.3562 108.204 11.3336 108.135 11.3247C108.065 11.3157 107.994 11.3204 107.926 11.3385C107.858 11.3567 107.795 11.3879 107.739 11.4304C107.683 11.4729 107.636 11.5259 107.601 11.5863C107.566 11.6467 107.544 11.7134 107.534 11.7825C107.239 12.8758 106.826 13.9345 106.302 14.9402C105.609 16.0497 104.832 17.1053 103.977 18.0979C103.921 18.0771 103.864 18.0595 103.807 18.0453C101.355 17.2078 98.8007 16.7015 96.2127 16.5401C94.8852 16.4454 93.5151 16.5401 92.1875 16.3401C90.7243 16.041 89.3235 15.4964 88.0454 14.7297L87.2064 14.2982C88.8476 13.3842 90.2603 12.1158 91.3395 10.5871C92.4187 9.05834 93.1369 7.30845 93.4407 5.46715C93.4484 5.43298 93.4425 5.3972 93.4244 5.36717C93.4063 5.33714 93.3772 5.31515 93.3432 5.30571C93.3092 5.29627 93.2728 5.30011 93.2416 5.31644C93.2103 5.33276 93.1866 5.36033 93.1752 5.39347C92.2055 7.47394 90.8551 9.35827 89.1924 10.951C88.6295 11.5404 87.918 12.0036 87.3232 12.5088C86.9196 12.8877 86.5373 13.2982 86.1443 13.6982C84.6535 12.9342 83.0575 12.3916 81.4074 12.0878C78.8054 11.6457 76.0971 11.8457 73.5269 10.951C72.3197 10.4935 71.231 9.77426 70.3406 8.84587C71.2468 8.89986 72.1545 8.76726 73.0064 8.45643C74.6192 7.71327 76.092 6.70228 77.3609 5.46715C79.6444 3.15151 80.8339 -0.721918 81.2481 -3.85855C81.3119 -4.36378 80.5472 -4.40589 80.3879 -3.97434C79.3789 -1.03769 78.1363 2.68838 75.7254 4.80403C74.6053 5.788 73.376 6.64255 72.0612 7.35124C71.2807 7.68106 70.4697 7.93487 69.6397 8.10908C68.5595 6.7548 67.3463 5.51017 66.018 4.39354C64.085 2.95152 61.536 2.4884 59.2101 1.77266C59.605 1.72023 59.9954 1.63932 60.3784 1.53057C62.0707 1.08851 63.6162 0.213779 64.8603 -1.00611C67.2075 -3.36385 69.2467 -7.32149 69.1723 -10.7107C69.1723 -11.1949 68.3546 -11.3528 68.2696 -10.8265C67.6295 -7.44006 65.9881 -4.31859 63.554 -1.85869C62.2654 -0.712447 60.7113 0.101011 59.0296 0.509578C58.3604 0.699041 57.5533 0.720092 56.8204 0.856924C55.4936 0.30727 54.3229 -0.556502 53.4112 -1.6587C52.2499 -3.13133 51.3518 -4.79033 50.756 -6.56364C50.5861 -7.04782 50.4267 -7.56357 50.2887 -8.08986C50.3422 -10.1473 50.7891 -12.176 51.6057 -14.0684C52.7527 -16.8893 55.0149 -18.3313 57.6489 -19.647C60.0858 -20.8841 62.8043 -21.4751 65.5401 -21.3627C65.4606 -20.6639 65.4322 -19.9604 65.4551 -19.2575C65.2414 -17.497 64.8501 -15.7621 64.2868 -14.0789C63.2991 -10.8581 60.1022 -8.56351 57.2134 -7.13203C57.2134 -7.13203 57.2134 -7.0373 57.2134 -7.04782C60.4952 -8.24775 64.0213 -9.82659 65.6357 -13.1422C66.2835 -14.4789 68.089 -18.9102 67.4305 -21.1627C69.8755 -20.5017 72.1187 -19.2546 73.9623 -17.5313C75.0343 -16.5629 76.022 -15.5066 76.9149 -14.3737C76.8115 -14.3289 76.7231 -14.2559 76.66 -14.1631C75.6829 -12.8474 75.6829 -10.6265 75.1731 -9.08979C74.3251 -6.71812 73.0233 -4.5309 71.339 -2.64811C71.3249 -2.63415 71.317 -2.61522 71.317 -2.59548C71.317 -2.57574 71.3249 -2.55681 71.339 -2.54285C71.3531 -2.5289 71.3722 -2.52105 71.3921 -2.52105C71.412 -2.52105 71.4311 -2.5289 71.4452 -2.54285C74.9819 -5.40582 76.6493 -8.96349 77.8176 -13.2158C78.5292 -12.3212 79.2408 -11.437 80.0267 -10.595C81.896 -8.56351 84.1688 -7.78462 86.6328 -6.7531C86.6328 -6.11104 86.6328 -5.42688 86.6328 -4.84797C86.5372 -3.7954 86.4735 -2.74284 86.3142 -1.62712C86.0773 0.126188 85.4576 1.80723 84.4981 3.29887C83.2651 4.87271 81.8378 6.28716 80.2498 7.50912C80.1436 7.60385 80.2498 7.79331 80.3985 7.70911C82.3952 6.43551 84.4237 5.45662 85.9637 3.62516C87.0884 2.14443 87.8189 0.40695 88.0879 -1.42714C88.3874 -2.88502 88.5263 -4.37082 88.5021 -5.85843C90.529 -4.66938 92.327 -3.1334 93.8125 -1.32188C95.5029 0.759466 97.6543 2.42702 100.1 3.55149C100.843 3.89883 101.629 4.23565 102.352 4.60405C102.307 4.68298 102.275 4.76815 102.256 4.85666C101.884 6.7197 101.948 8.63536 101.194 10.4037C100.363 12.6812 98.8328 14.6433 96.8181 16.0138L96.8181 16.098C101.183 14.1297 103.265 10.2247 103.86 5.73029L103.945 5.80397C104.884 6.98947 105.891 8.12105 106.961 9.19322C109.191 11.0563 111.868 12.0878 113.939 14.2034C114.81 15.0981 116.265 16.5296 116.116 17.8348Z" fill="url(#paint7_linear_17_1336)"/>
<path d="M288.708 -27.2518C287.097 -26.3148 286.97 -25.0725 284.786 -25.8937C283.568 -26.4476 282.287 -26.8507 280.97 -27.0939C278.426 -27.4203 276.073 -27.3255 274.175 -25.462C272.426 -23.767 272.649 -21.7982 273.009 -19.6925C272.373 -19.9156 271.716 -20.0778 271.048 -20.1768C270.315 -20.1891 269.583 -20.122 268.865 -19.9768C268.059 -19.8666 267.288 -19.5811 266.606 -19.1407C265.925 -18.7003 265.349 -18.1158 264.921 -17.4289C263.66 -15.1443 263.957 -11.1119 266.702 -10.0591C264.699 -6.9006 262.462 -3.63682 262.95 0.237607C263.103 1.85909 263.633 3.42319 264.497 4.8069C265.321 6.05579 266.559 6.97939 267.995 7.41792C269.501 8.03909 269.416 9.26038 269.564 10.7028C269.609 11.5667 269.774 12.4204 270.052 13.2401C270.719 14.817 271.759 16.211 273.084 17.304C274.21 18.2805 275.585 18.9306 277.058 19.1831C278.531 19.4356 280.046 19.2809 281.437 18.7359C281.85 19.1886 282.189 19.9782 282.55 20.3888C283.121 21.0379 283.765 21.6206 284.468 22.126C285.95 23.2239 287.731 23.8514 289.577 23.9263C291.438 23.9753 293.256 23.3675 294.707 22.2109C296.159 21.0542 297.151 19.4238 297.506 17.6093C297.672 16.6749 297.733 15.725 297.687 14.7772C297.687 14.2087 297.114 12.9242 297.294 12.461C297.475 11.9977 298.99 11.345 299.414 10.9239C299.714 10.6077 299.971 10.2537 300.178 9.87102C304.534 9.78679 308.88 9.492 313.258 9.87102C316.036 10.0921 318.813 10.3027 321.579 10.6501C322.752 10.7761 323.914 10.9872 325.056 11.2818C325.303 11.3942 325.572 11.447 325.843 11.4361C326.114 11.4251 326.378 11.3506 326.614 11.2186C326.761 11.1397 326.883 11.0224 326.967 10.8795C327.051 10.7366 327.094 10.5735 327.091 10.408C326.931 8.40438 327.02 6.38873 327.356 4.40682C327.643 2.62753 328.469 0.816662 328.512 -0.983681C328.586 -4.28957 324.685 -4.40539 322.247 -4.81599C318.304 -5.47928 314.276 -5.73196 310.354 -6.49C307.763 -6.99472 305.212 -7.68435 302.722 -8.55354C302.934 -8.61041 303.14 -8.68799 303.336 -8.78517C304.335 -9.28527 305.205 -10.0055 305.881 -10.8908C307.431 -12.8449 308.188 -15.3057 308.001 -17.7869C307.968 -18.981 307.575 -20.1378 306.872 -21.1067C306.169 -22.0757 305.188 -22.8119 304.057 -23.2195C302.922 -23.8639 301.834 -24.5888 300.803 -25.3883C299.566 -26.1421 298.273 -26.8003 296.934 -27.3571C294.348 -28.3573 291.263 -28.7363 288.708 -27.2518ZM306.273 -5.66878C309.913 -4.8002 313.606 -4.16717 317.329 -3.77369C319.152 -3.53153 320.965 -3.31044 322.767 -2.97354C323.574 -2.87725 324.371 -2.71527 325.152 -2.48923C326.508 -1.97334 326.72 -1.09949 326.402 0.269188C325.601 3.20148 325.173 6.22222 325.13 9.26038C324.652 9.11737 324.163 9.01523 323.668 8.95505C322.47 8.75502 321.251 8.6392 320.042 8.55498C317.414 8.36547 314.742 8.23913 312.124 8.10226C308.263 7.99068 304.4 8.25515 300.591 8.89189C300.942 7.93669 301.029 6.90537 300.843 5.9054C300.657 4.90544 300.204 3.97346 299.531 3.20659C300.252 3.3224 300.983 3.3961 301.651 3.49086C303.654 3.76459 305.637 4.09097 307.64 4.35418C310.025 4.67003 312.41 4.03833 312.728 1.27991C312.899 0.149632 312.678 -1.0046 312.103 -1.9944C311.382 -2.95248 310.227 -2.93142 309.135 -3.04723C307.513 -3.24727 305.891 -3.39467 304.259 -3.51048C303.191 -3.58998 302.129 -3.73413 301.079 -3.94214C300.909 -3.94214 300.527 -3.94214 300.188 -4.00531C300.379 -4.69194 300.486 -5.39894 300.506 -6.11097C300.453 -6.77954 300.311 -7.43809 300.082 -8.06924C301.693 -6.73215 304.45 -6.15309 306.262 -5.66878L306.273 -5.66878ZM307.863 2.93285C306.665 2.85916 305.488 2.62753 304.301 2.48014C302.433 2.18415 300.538 2.09938 298.651 2.22746C298.116 1.69925 297.534 1.22003 296.913 0.795604C297.464 0.32183 298.704 -0.625718 298.874 -0.857342C299.243 -1.36126 299.539 -1.91412 299.754 -2.49976C301.131 -2.20512 302.532 -2.03596 303.941 -1.9944C305.064 -1.91017 306.167 -1.82595 307.28 -1.69961C308.393 -1.57327 310.46 -1.76278 311.075 -0.467794C311.297 0.0894974 311.322 0.705039 311.147 1.27857C310.972 1.85211 310.606 2.34984 310.11 2.6907C309.404 3.01471 308.611 3.09978 307.852 2.93285L307.863 2.93285ZM295.28 -25.9042C297.564 -25.2724 299.701 -24.199 301.566 -22.7457C303.082 -21.4718 305.011 -20.9138 305.637 -18.8608C305.95 -17.7866 306.024 -16.6577 305.854 -15.5523C305.683 -14.447 305.273 -13.3916 304.651 -12.4596C304.065 -11.4273 303.173 -10.6 302.096 -10.0907C301.072 -9.83113 300.036 -9.62381 298.99 -9.46951C298.819 -9.41831 298.667 -9.31428 298.559 -9.17239C298.45 -9.0305 298.39 -8.85806 298.386 -8.67988C298.45 -7.3849 299.065 -6.43735 298.8 -5.01603C298.67 -4.14036 298.367 -3.29881 297.909 -2.53988C297.451 -1.78096 296.845 -1.11967 296.128 -0.594134C295.545 -0.162472 294.835 0.248132 294.962 1.06934C295.09 1.89055 296.393 2.44855 297.008 3.10131C298.217 4.39629 299.34 6.08082 298.842 7.91275C298.344 9.74468 296.987 10.0184 295.789 11.0712C295.495 11.3128 295.281 11.637 295.175 12.0014C295.069 12.3658 295.076 12.7535 295.196 13.1137C295.482 15.0194 295.885 16.7039 295.015 18.5885C293.436 22.0312 289.1 22.6103 286.048 20.8205C284.861 20.0697 283.846 19.0797 283.069 17.9147C282.698 17.3882 282.359 16.7144 281.617 16.6934C281.267 16.6934 280.938 16.925 280.61 17.0198C279.798 17.2735 278.947 17.377 278.097 17.3251C276.296 17.1216 274.649 16.2167 273.518 14.8088C272.419 13.5844 271.772 12.0249 271.684 10.3869C271.676 9.14118 271.394 7.91228 270.858 6.78622C270.158 5.65969 269.151 5.73339 267.974 5.3649C266.003 4.81743 264.879 2.8381 264.413 0.985116C263.406 -3.12093 265.473 -6.55316 267.593 -9.90117C268.525 -9.81694 268.504 -11.2277 267.593 -11.333C265.854 -11.5331 265.568 -14.2809 265.928 -15.5444C266.084 -16.1782 266.414 -16.7564 266.882 -17.2139C267.351 -17.6715 267.938 -17.9902 268.579 -18.1343C269.702 -18.4442 270.885 -18.4767 272.024 -18.2291C272.765 -17.9363 273.558 -17.7932 274.356 -17.8079C274.591 -17.8767 274.79 -18.0339 274.911 -18.2462C275.032 -18.4585 275.065 -18.7092 275.002 -18.945C274.704 -20.011 274.554 -21.1128 274.557 -22.2193C274.695 -22.9453 275.041 -23.6161 275.555 -24.1505C276.069 -24.6849 276.727 -25.06 277.451 -25.2304C279.823 -25.5877 282.246 -25.107 284.299 -23.8723C285.581 -23.1563 286.684 -22.9247 287.892 -23.8723C288.671 -24.72 289.616 -25.4007 290.669 -25.8726C292.166 -26.3333 293.767 -26.3442 295.27 -25.9042L295.28 -25.9042Z" fill="url(#paint8_linear_17_1336)"/>
<path d="M292.879 3.10923C293.234 4.14915 293.548 6.10856 292.281 6.72156C291.49 7.10469 290.192 6.4479 289.341 6.4479C289.229 6.44914 289.118 6.47785 289.018 6.53187C288.918 6.58589 288.83 6.66381 288.762 6.75974C288.693 6.85567 288.646 6.96711 288.623 7.08565C288.601 7.20419 288.603 7.32674 288.631 7.44403C289.391 9.46913 289.777 15.2926 286.38 12.6874C285.528 12.0306 284.281 9.66616 282.984 10.6404C282.456 11.0235 282.243 11.8445 281.777 12.3371C281.486 12.7011 281.121 12.9868 280.71 13.1714C280.299 13.356 279.853 13.4345 279.409 13.4004C278.965 13.3664 278.535 13.2209 278.152 12.9755C277.769 12.7301 277.445 12.3915 277.204 11.9868C275.714 9.79752 274.66 6.51358 276.049 3.98495C276.191 3.73318 275.856 3.54709 275.704 3.76602C273.737 6.56831 274.781 11.2862 276.961 13.6178C277.45 14.1484 278.06 14.5293 278.73 14.7217C279.4 14.914 280.105 14.9108 280.773 14.7125C281.37 14.5128 281.929 14.2016 282.426 13.793C282.71 13.5631 283.176 12.8078 283.551 12.3699C285.062 14.2308 287.384 16.6391 289.635 14.9314C291.531 13.4974 291.409 10.3777 290.568 8.11177C291.764 8.33069 292.97 8.68098 293.934 7.57539C294.435 6.8821 294.746 6.0511 294.832 5.17659C294.918 4.30208 294.775 3.41905 294.42 2.62759C294.065 1.60957 292.504 2.04743 292.879 3.10923Z" fill="url(#paint9_linear_17_1336)"/>
<path d="M290.981 -9.50372C292.907 -8.81306 293.869 -6.01902 291.53 -4.98302C290.837 -4.69001 290.009 -4.98302 289.383 -4.62723C289.243 -4.5377 289.142 -4.3919 289.1 -4.22146C289.059 -4.05102 289.081 -3.86969 289.162 -3.71681C289.826 -2.67035 290.51 -1.03787 289.633 0.102767C288.497 1.60967 286.591 0.238807 285.417 -0.493715C285.317 -0.557548 285.198 -0.57577 285.087 -0.54437C284.975 -0.51297 284.879 -0.434521 284.82 -0.326281C284.761 -0.218041 284.744 -0.0888763 284.773 0.0327983C284.802 0.154473 284.874 0.25869 284.974 0.322524C286.755 1.57827 289.162 3.14796 290.962 0.960862C291.388 0.369871 291.634 -0.350438 291.667 -1.10037C291.7 -1.8503 291.517 -2.59275 291.145 -3.22497C291.633 -3.30594 292.109 -3.45727 292.56 -3.67495C293.049 -3.84746 293.496 -4.13875 293.866 -4.52675C294.237 -4.91475 294.521 -5.38927 294.697 -5.91437C294.862 -6.52646 294.9 -7.17083 294.807 -7.8006C294.714 -8.43036 294.493 -9.02967 294.16 -9.55491C293.827 -10.0802 293.391 -10.5181 292.882 -10.8369C292.374 -11.1557 291.807 -11.3473 291.222 -11.3978C290.173 -11.5757 290.067 -9.82813 290.981 -9.50372Z" fill="url(#paint10_linear_17_1336)"/>
<path d="M136.771 36.4521C139.06 37.2607 141.515 37.4941 143.917 37.1313C146.571 36.7386 149.125 35.8485 151.442 34.5088C152.081 34.0143 152.793 33.6196 153.553 33.3387C154.355 33.2237 154.608 33.6939 155.02 34.3835C156.001 35.8044 156.951 37.2357 157.806 38.7298C158.513 39.9731 159.115 41.2686 159.811 42.5224C160.149 43.1493 160.434 43.9015 161.205 44.0896C162.735 44.4657 164.16 41.5821 164.677 40.5268C165.606 38.6775 165.067 37.0686 163.991 35.4073C163.188 34.2542 162.317 33.1483 161.384 32.0954C160.629 31.2956 159.924 30.4513 159.273 29.567C159.655 29.4713 160.026 29.3383 160.381 29.1699C160.867 28.853 161.295 28.4574 161.648 27.9998C162.09 27.5531 162.489 27.0669 162.841 26.5475C163.379 25.8057 163.896 25.0535 164.392 24.2803C164.593 23.9773 164.782 23.6743 164.962 23.3505C165.447 22.539 165.888 21.7019 166.281 20.843C168.069 16.8084 168.862 12.4106 168.593 8.01291C168.54 7.22931 168.508 5.68303 167.379 5.62034C167.113 5.63919 166.856 5.72612 166.634 5.87264C166.412 6.01915 166.232 6.22023 166.112 6.45617C165.646 4.34211 164.852 2.31215 163.759 0.438168C161.922 -2.60874 159.54 -5.29935 156.73 -7.50225C150.757 -12.6216 143.469 -16.003 135.674 -17.271C132.349 -17.8248 128.286 -18.8278 125.035 -17.4382C122.048 -16.1427 120.191 -12.7471 119.272 -9.80078C117.098 -2.83202 118.396 4.99346 120.687 11.7533C122.065 15.9693 123.928 20.0148 126.238 23.8102C128.096 27.0154 130.482 29.8901 133.299 32.3148C132.939 32.3303 132.584 32.3971 132.244 32.5133C132.075 32.5985 131.946 32.7455 131.885 32.923C131.824 33.1005 131.835 33.2946 131.916 33.464C132.645 34.9581 135.262 35.9506 136.771 36.4521ZM124.338 15.7653C121.848 9.75771 119.863 3.15463 120.328 -3.39621C120.571 -6.89627 121.077 -10.2605 123.188 -13.1755C123.675 -13.9939 124.356 -14.6824 125.173 -15.1812C125.99 -15.6801 126.917 -15.9742 127.874 -16.0382C129.475 -16.1149 131.08 -16.0344 132.666 -15.7979C136.027 -15.4707 139.341 -14.7697 142.545 -13.7083C145.84 -12.5427 148.989 -11.0036 151.927 -9.12167C155.284 -6.94402 158.3 -4.28975 160.877 -1.24394C162.069 0.260136 163.039 1.92401 163.759 3.69792C164.39 5.01463 164.93 6.37255 165.374 7.76216C164.528 10.1529 163.468 12.4642 162.207 14.6682C161.595 15.6608 160.951 16.6324 160.297 17.5936C160.297 16.6847 160.191 15.7757 160.128 14.9503C159.97 13.0279 160.022 9.72637 158.165 8.5353C157.964 8.40684 157.72 8.36116 157.485 8.408C157.251 8.45483 157.044 8.59048 156.909 8.78605C155.442 10.6876 155.347 13.5294 155.041 15.8175C154.861 17.1757 154.671 18.5235 154.439 19.8713L154.26 21.2818C153.743 20.122 153.204 18.9832 152.603 17.834C151.853 16.2772 151.231 14.4697 149.721 13.4981C149.609 13.4258 149.481 13.3798 149.347 13.3637C149.214 13.3476 149.079 13.3617 148.951 13.405C148.824 13.4483 148.709 13.5196 148.614 13.6135C148.519 13.7075 148.446 13.8216 148.402 13.9473C147.758 15.4518 148.55 17.5101 148.951 18.9832C149.141 19.6728 151.146 24.3743 150.914 24.5729C150.682 24.7714 148.539 23.6534 148.223 23.5281C147.167 23.0161 146.112 22.4833 145.057 21.9086C143.748 21.2295 142.133 19.934 140.655 19.7041C140.516 19.6977 140.378 19.727 140.254 19.7893C140.13 19.8517 140.025 19.9448 139.948 20.0596C139.872 20.1745 139.827 20.3071 139.817 20.4444C139.808 20.5817 139.835 20.7191 139.895 20.843C140.942 22.5046 142.163 24.0524 143.537 25.4609C144.244 26.2654 144.972 27.0595 145.648 27.864C145.943 28.2087 146.323 28.5535 146.703 28.9087C144.94 28.7416 143.178 28.4072 141.426 28.1147C139.315 27.7595 137.204 26.8401 135.093 26.7042C134.943 26.7011 134.794 26.7406 134.665 26.8182C134.537 26.8957 134.433 27.008 134.366 27.1418C134.3 27.2757 134.273 27.4256 134.29 27.5739C134.307 27.7221 134.366 27.8627 134.46 27.9789C135.873 29.1796 137.376 30.2728 138.956 31.2491C140.012 31.97 141.362 32.4924 142.481 33.1819C140.716 33.3158 138.94 33.2068 137.204 32.8581C136.687 32.7849 136.149 32.67 135.568 32.5551C130.801 27.7001 126.992 22.0057 124.338 15.7653ZM135.843 33.9969C137.077 34.164 138.312 34.3417 139.558 34.4148C140.983 34.5088 142.914 34.8014 144.212 34.0596C144.302 34.0102 144.379 33.9423 144.439 33.8604C144.5 33.7786 144.541 33.6847 144.561 33.5854C144.581 33.4861 144.579 33.3836 144.556 33.2851C144.532 33.1866 144.487 33.0943 144.423 33.0148C143.431 31.97 141.89 31.458 140.729 30.6431C139.843 30.0371 138.882 29.4102 137.953 28.7625C139.093 29.0341 140.244 29.358 141.373 29.5252C143.611 29.8386 145.88 30.2774 148.138 30.4132C148.266 30.424 148.395 30.3994 148.51 30.3423C148.625 30.2852 148.721 30.1977 148.789 30.0895C148.857 29.9813 148.893 29.8567 148.894 29.7295C148.894 29.6022 148.859 29.4773 148.793 29.3685C147.908 27.9581 146.844 26.6659 145.626 25.5236C144.74 24.4788 143.769 23.5072 142.893 22.3892C143.118 22.5308 143.35 22.6598 143.589 22.7758C144.772 23.3609 145.964 23.9564 147.178 24.4997C148.392 25.043 150.977 26.5893 152.318 25.649C152.406 25.572 152.473 25.474 152.511 25.3642C152.55 25.2544 152.56 25.1367 152.539 25.0221C152.156 23.2989 151.627 21.6108 150.956 19.9758C150.504 18.7483 150.151 17.4871 149.901 16.2041C150.492 17.1444 150.956 18.2937 151.368 19.1608C152.232 20.659 152.963 22.2286 153.553 23.852C153.582 23.9679 153.637 24.076 153.713 24.1686C153.789 24.2612 153.885 24.3361 153.994 24.3879C154.103 24.4398 154.222 24.4673 154.343 24.4686C154.463 24.4698 154.583 24.4448 154.693 24.3952C155.284 24.1549 155.368 23.737 155.516 23.1624C155.843 21.8773 155.991 20.4877 156.223 19.1713C156.656 16.7265 156.613 13.216 157.774 10.813C158.231 12.39 158.472 14.0204 158.492 15.6608C158.629 17.2489 158.957 19.4743 158.028 20.8847C157.97 20.9705 157.93 21.0666 157.91 21.1676C157.89 21.2687 157.891 21.3726 157.911 21.4735C157.932 21.5744 157.972 21.6703 158.03 21.7557C158.088 21.8411 158.163 21.9144 158.249 21.9713C158.424 22.0863 158.638 22.1278 158.844 22.0867C159.05 22.0455 159.231 21.9251 159.347 21.7519C161.295 19.0287 163.058 16.1807 164.624 13.2264C165.3 11.8756 165.879 10.479 166.355 9.04725C166.447 8.69899 166.552 8.35072 166.672 8.00246C167.157 6.95767 167.231 6.95767 166.904 7.89798C166.978 8.62346 167.009 9.35253 166.999 10.0816C166.882 13.3919 166.215 16.6606 165.025 19.7564C164.601 20.9041 164.082 22.0153 163.474 23.0788C162.777 23.946 162.028 24.7609 161.278 25.6072C160.544 26.6306 159.56 27.4536 158.418 27.9998C158.026 28.1431 157.682 28.3929 157.426 28.7207C157.34 28.8474 157.29 28.9947 157.28 29.1472C157.271 29.2996 157.303 29.4518 157.373 29.5879C158.133 31.2073 159.928 32.7222 161.12 34.0596C162.026 34.9793 162.806 36.0119 163.442 37.1313C164.149 38.5522 163.801 39.482 163.052 40.7671C162.577 41.5716 161.996 43.191 161.046 42.1776C160.404 41.1998 159.886 40.147 159.505 39.0432C158.397 36.8596 157.078 34.8014 155.759 32.7745C155.02 31.6148 154.481 31.3327 153.173 31.8133C150.756 32.67 148.803 34.4461 146.26 35.0835C144.051 35.6636 141.748 35.8057 139.484 35.5014C138.323 35.337 137.191 35.0172 136.117 34.5506C135.779 34.3939 134.998 34.07 134.323 33.7043C134.829 33.767 135.389 33.9029 135.843 33.9969Z" fill="url(#paint11_linear_17_1336)"/>
<path d="M154.881 3.6754C155.25 3.77349 155.65 3.75033 156 3.61058C156.344 3.44821 156.609 3.18771 156.745 2.87601C156.851 2.65794 156.887 2.42029 156.848 2.18702C156.81 1.95374 156.699 1.73309 156.527 1.54731C156.484 1.34803 156.394 1.15809 156.261 0.989086C156.129 0.820078 155.957 0.675539 155.755 0.564278C155.571 0.464063 155.363 0.400459 155.145 0.378317C154.927 0.356175 154.707 0.376079 154.499 0.436512C154.292 0.496944 154.104 0.59631 153.95 0.727032C153.795 0.857754 153.679 1.01638 153.608 1.19082C153.461 1.57354 153.461 1.98558 153.608 2.3683C153.678 2.65654 153.831 2.92612 154.053 3.15383C154.274 3.38153 154.559 3.56053 154.881 3.6754Z" fill="url(#paint12_linear_17_1336)"/>
<path d="M149.027 7.06611C149.324 7.00056 149.59 6.84552 149.789 6.62365C149.987 6.40178 150.106 6.12471 150.129 5.83294C150.149 5.49117 150.077 5.15017 149.92 4.84318C149.762 4.53619 149.525 4.27365 149.231 4.08115C148.969 3.89307 148.66 3.77662 148.335 3.74416C148.011 3.71169 147.683 3.76442 147.387 3.89675C147.177 4.00798 147.006 4.17728 146.897 4.38274C146.789 4.58821 146.746 4.82038 146.776 5.04925C146.788 5.18263 146.829 5.31213 146.896 5.42957L147.027 5.62549C147.052 5.80121 147.105 5.97224 147.183 6.13259C147.329 6.47108 147.593 6.7498 147.93 6.92034C148.267 7.09088 148.655 7.14245 149.027 7.06611Z" fill="url(#paint13_linear_17_1336)"/>
<path d="M140.939 10.4647C141.068 10.4743 141.196 10.4264 141.311 10.3255C141.426 10.2247 141.523 10.0744 141.595 9.88918C141.666 9.70398 141.708 9.49019 141.717 9.26859C141.726 9.04699 141.702 8.82511 141.646 8.62449L141.613 8.52098C141.671 8.30639 141.682 8.06251 141.642 7.83564C141.603 7.60878 141.517 7.41473 141.4 7.29035C141.263 7.16548 141.111 7.1002 140.956 7.1002C140.801 7.1002 140.649 7.16548 140.513 7.29035C140.327 7.45548 140.182 7.72885 140.102 8.06169C140.023 8.39452 140.015 8.76518 140.079 9.10753C140.125 9.45821 140.232 9.77625 140.386 10.0189C140.54 10.2615 140.733 10.4171 140.939 10.4647Z" fill="url(#paint14_linear_17_1336)"/>
<path d="M134.678 17.1469C134.932 17.2135 135.199 17.2135 135.453 17.1469C135.709 17.0902 135.948 16.9781 136.152 16.8191C136.356 16.6491 136.508 16.4298 136.593 16.1843C136.678 15.9388 136.693 15.676 136.635 15.4234C136.61 15.3142 136.572 15.2082 136.521 15.1078C136.546 14.9918 136.546 14.8719 136.521 14.7558C136.317 13.8091 135.148 13.6513 134.36 14.0033C134.07 14.1283 133.82 14.3243 133.634 14.5716C133.449 14.8189 133.336 15.1086 133.305 15.4112C133.286 15.8573 133.451 16.2929 133.763 16.625C134.004 16.8847 134.324 17.067 134.678 17.1469Z" fill="url(#paint15_linear_17_1336)"/>
<path d="M132.828 8.6523C133.022 8.70695 133.23 8.74818 133.446 8.77489C133.641 8.79002 133.839 8.78445 134.03 8.75854C134.22 8.73264 134.397 8.68696 134.55 8.62444C134.721 8.54886 134.848 8.45176 134.92 8.34307C134.992 8.23439 135.005 8.11803 134.958 8.00591L134.958 8.17308C134.975 8.11768 134.975 8.06132 134.958 8.00591C134.917 7.92306 134.85 7.84405 134.76 7.77188C134.58 7.64777 134.335 7.55132 134.053 7.49326C134.451 7.58799 134.208 7.52112 134.053 7.49326C134.009 7.44201 133.953 7.39342 133.888 7.34838C133.764 7.26713 133.603 7.20221 133.419 7.15915C133.234 7.11609 133.032 7.09617 132.829 7.1011C132.627 7.10602 132.429 7.13565 132.254 7.18744C132.079 7.23924 131.931 7.31166 131.823 7.39853C131.645 7.56601 131.581 7.75868 131.643 7.94629C131.705 8.13389 131.889 8.30579 132.165 8.43498C132.36 8.52575 132.584 8.59923 132.828 8.6523Z" fill="url(#paint16_linear_17_1336)"/>
<path d="M139.37 1.7243C140.161 2.23247 141.348 2.24377 141.664 1.08062C141.726 0.809459 141.734 0.526249 141.69 0.250856C141.645 -0.0245382 141.548 -0.285446 141.406 -0.513566C141.264 -0.741686 141.079 -0.931493 140.866 -1.06967C140.653 -1.20785 140.416 -1.29105 140.171 -1.31344C139.962 -1.30285 139.758 -1.233 139.578 -1.11017C139.433 -1.18051 139.272 -1.20193 139.117 -1.17193C138.961 -1.14192 138.815 -1.06173 138.698 -0.94078C138.557 -0.791021 138.454 -0.601332 138.398 -0.391049C138.343 -0.180767 138.337 0.0425887 138.382 0.256247C138.446 0.566861 138.568 0.858307 138.738 1.11136C138.909 1.36441 139.124 1.57331 139.37 1.7243Z" fill="url(#paint17_linear_17_1336)"/>
<path d="M128.837 5.39673C129.159 5.30237 129.441 5.09864 129.64 4.81764C129.839 4.53664 129.943 4.19436 129.935 3.84475C129.949 3.54146 129.857 3.24332 129.678 3.00481C129.498 2.7663 129.243 2.60333 128.958 2.54569C128.921 2.55191 128.884 2.55191 128.848 2.54569C128.783 2.44674 128.706 2.35774 128.617 2.28127C128.473 2.15844 128.298 2.08129 128.113 2.05889C127.928 2.03649 127.741 2.06977 127.574 2.15482C127.356 2.20392 127.153 2.30636 126.981 2.45372C126.828 2.59543 126.712 2.77493 126.643 2.97577C126.574 3.17661 126.554 3.39239 126.585 3.60333C126.649 3.95169 126.805 4.2743 127.036 4.53452C127.209 4.74864 127.408 4.93802 127.629 5.09783C127.978 5.35968 128.412 5.46705 128.837 5.39673Z" fill="url(#paint18_linear_17_1336)"/>
<path d="M143.236 16.2642C143.424 15.8783 143.453 15.4335 143.317 15.0261C143.23 14.7862 143.091 14.5682 142.912 14.3874C142.732 14.2065 142.516 14.0671 142.278 13.9786C142.153 13.9268 142.02 13.8991 141.886 13.897C141.53 13.7846 141.144 13.817 140.811 13.9873C140.478 14.1576 140.224 14.4523 140.104 14.8085C139.999 15.199 140.016 15.6127 140.154 15.9927C140.292 16.3727 140.543 16.7004 140.873 16.9308C141.068 17.0583 141.287 17.1426 141.517 17.1779C141.746 17.2133 141.981 17.199 142.204 17.1359C142.428 17.0728 142.636 16.9624 142.814 16.8121C142.992 16.6618 143.136 16.475 143.236 16.2642Z" fill="url(#paint19_linear_17_1336)"/>
<path d="M151.625 10.2275C151.747 10.1004 151.815 9.93563 151.815 9.76483C151.815 9.59402 151.747 9.42924 151.625 9.30214C151.564 9.23969 151.498 9.18292 151.431 9.12615L151.51 9.1886C151.465 9.15105 151.424 9.10919 151.388 9.0637L151.418 9.10912C151.366 9.03277 151.298 8.96711 151.218 8.91609L151.163 8.88771L151.212 8.92177C151.101 8.8323 150.96 8.78304 150.813 8.78304C150.667 8.78304 150.526 8.8323 150.415 8.92177C149.898 9.25672 150.16 10.0969 150.64 10.3524C150.793 10.4443 150.977 10.4823 151.157 10.4594C151.338 10.4365 151.504 10.3543 151.625 10.2275Z" fill="url(#paint20_linear_17_1336)"/>
<path d="M355.138 12.2274C353.954 12.5572 352.835 13.0846 351.829 13.7873C351.102 14.3233 350.24 14.6467 349.339 14.7211C348.306 14.588 347.317 14.2254 346.444 13.66C344.125 12.5988 341.369 12.3972 339.422 14.286C338.358 15.3472 338.049 16.9177 337.102 18.0319C336.155 19.1461 333.771 17.427 332.601 17.236C331.401 17.0118 330.161 17.2058 329.088 17.7854C328.014 18.365 327.173 19.295 326.706 20.4195C326.181 21.5828 325.997 22.8702 326.174 24.1335C326.453 25.0469 326.869 25.9128 327.408 26.7014C325.533 28.6434 324.23 31.0628 323.642 33.6944C323.207 36.3314 323.578 39.0377 324.706 41.462C325.876 44.0512 328.398 45.8869 328.643 48.7839C328.887 51.6808 329.228 54.0896 330.92 56.4878C332.463 58.6843 334.41 60.6793 337.198 61.0295C338.613 61.2099 340.23 60.5944 341.539 61.0295C342.848 61.4645 343.837 63.2473 344.965 64.2129C345.941 65.0234 347.102 65.5819 348.345 65.8392C349.588 66.0964 350.876 66.0444 352.095 65.6879C353.141 65.2749 354.081 64.6306 354.842 63.8035C355.603 62.9765 356.166 61.9881 356.489 60.9127C356.746 60.8753 357.006 60.854 357.266 60.8491C358.864 60.9279 360.456 61.1015 362.033 61.369C365.023 61.6449 368.034 61.698 371.035 61.6874C373.967 61.8376 376.907 61.6129 379.782 61.0189C381.91 60.4564 383.41 58.6949 384.602 56.9334C388.002 51.8101 390.075 45.9253 390.635 39.8066C390.858 37.5145 390.933 34.6282 390.007 32.4741C389.081 30.3199 386.336 29.3649 384.485 28.5266C381.292 27.0728 377.994 25.9268 374.727 24.6428C371.461 23.3588 368.556 22.0536 365.332 21.0774C364.679 18.7794 363.469 16.6767 361.809 14.9546C360.33 13.3098 357.457 11.7817 355.138 12.2274ZM382.442 56.7955C381.526 58.1557 380.133 59.1248 378.537 59.512C376.697 59.8162 374.836 59.9618 372.971 59.9471C369.779 60.085 366.534 60.1593 363.32 60.0744C361.756 60.0744 360.224 59.7879 358.67 59.7243C358.057 59.6835 357.44 59.7012 356.83 59.7773C357.223 58.3129 357.362 56.8167 357.713 55.3311L357.883 54.7581C359.508 55.0982 361.161 55.2865 362.82 55.3205C364.948 55.5009 367.077 55.798 369.205 55.9148C371.333 56.0315 373.695 56.2543 375.94 56.3817C378.185 56.509 380.441 56.2755 382.676 56.4772L382.442 56.7955ZM383.357 55.554C383.305 55.5127 383.245 55.4841 383.18 55.4702C383.115 55.4564 383.048 55.4578 382.984 55.4742C382.92 55.4907 382.861 55.5218 382.811 55.5652C382.761 55.6085 382.722 55.6628 382.697 55.7237C383.027 55.0977 381.261 55.3523 380.75 55.363C379.622 55.363 378.505 55.363 377.377 55.363C375.046 55.363 372.737 55.0234 370.418 54.9067C368.098 54.7899 365.821 54.5671 363.523 54.3761C361.799 54.2275 360.033 53.9622 358.298 53.9622C358.587 53.6163 358.951 53.3404 359.362 53.1558C359.96 52.926 360.536 52.6455 361.086 52.3175C362.242 51.5263 363.146 50.4216 363.693 49.134C370.953 50.3387 378.287 51.0478 385.644 51.2563C385.018 52.7567 384.252 54.1955 383.357 55.554ZM364.374 41.3771C366.236 42.1311 368.163 42.7171 370.13 43.128C372.45 43.8071 374.791 44.136 377.143 44.656C379.015 45.0699 380.888 45.5049 382.772 45.8869C384.273 46.2863 385.797 46.5946 387.336 46.8101L386.996 47.8713C386.73 48.6671 386.432 49.4842 386.102 50.2801C382.271 49.845 378.345 49.8026 374.493 49.5479C371.046 49.3038 367.428 48.5504 363.948 48.561C364.266 47.6464 364.459 46.6935 364.523 45.7278C364.661 44.3309 364.618 42.9221 364.395 41.5362L364.395 41.3558L364.374 41.3771ZM383.878 40.1143C385.411 40.621 386.99 40.9764 388.592 41.1754C388.394 42.626 388.099 44.0618 387.709 45.4731C384.336 44.6454 380.771 44.2846 377.366 43.6373C375.238 43.2341 373.11 43.0112 371.056 42.4913C368.857 42.0781 366.68 41.5539 364.533 40.9208C364.489 40.9056 364.441 40.9069 364.398 40.9245C364.355 40.9421 364.32 40.9747 364.299 41.0163C364.168 40.6675 364.124 40.2921 364.17 39.9225C364.217 39.5528 364.352 39.1999 364.565 38.894C364.948 38.321 365.566 37.8328 365.97 37.281C366.476 36.572 366.904 35.8107 367.247 35.0102C370.971 36.0713 374.695 37.3341 378.366 38.4695C380.196 39.0638 382.027 39.5625 383.878 40.1143ZM388.72 40.04C387.334 39.5641 385.91 39.2091 384.463 38.9789C382.516 38.4801 380.58 37.9177 378.643 37.4402C374.951 36.464 371.195 35.3179 367.492 34.5115C368.106 32.8508 368.346 31.0755 368.194 29.3119L368.194 28.9935C372.035 30.4367 375.844 32.0284 379.664 33.5246C381.537 34.2568 383.442 34.9253 385.293 35.6469C386.464 36.135 387.656 36.708 388.869 37.1007L388.869 37.7586C388.815 38.5226 388.783 39.2548 388.72 40.04ZM374.44 26.521C377.515 27.6777 380.558 28.8131 383.559 30.182C385.006 30.8505 387.507 31.7313 388.251 33.2487C388.547 33.9415 388.713 34.6823 388.741 35.4347C381.983 32.7857 375.08 30.5183 368.066 28.6433C367.694 26.6484 366.502 25.0142 365.821 23.1784C368.758 24.1759 371.546 25.4599 374.44 26.521ZM358.905 15.0819C361.238 16.6464 362.91 19.0161 363.597 21.7353C363.63 22.571 363.788 23.3971 364.065 24.1865C364.565 25.3219 365.289 26.3088 365.693 27.5291C366.097 28.8009 366.239 30.1411 366.109 31.4689C365.979 32.7967 365.581 34.0844 364.938 35.2543C364.216 36.3014 363.427 37.301 362.576 38.2467C362.331 38.6383 362.171 39.0768 362.107 39.5337C362.043 39.9907 362.076 40.456 362.203 40.8996C362.554 43.4357 362.937 46.4812 361.65 48.8369C360.881 50.1088 359.65 51.0361 358.213 51.4261C357.422 51.5839 356.711 52.0116 356.202 52.6358C355.774 53.5575 355.549 54.5597 355.542 55.5752C355.379 56.8252 355.13 58.0625 354.797 59.2786C354.475 60.8704 353.633 62.3108 352.403 63.3746C351.594 63.8403 350.677 64.0854 349.743 64.0854C348.809 64.0854 347.892 63.8403 347.083 63.3746C345.199 62.3135 344.284 59.9153 342.358 59.077C341.731 58.8687 341.059 58.8285 340.411 58.9602C338.421 59.1406 336.634 59.2574 334.963 57.8991C333.821 56.9599 332.877 55.8054 332.183 54.5017C331.489 53.198 331.06 51.7706 330.92 50.3013C330.664 47.9243 330.643 46.1628 328.855 44.4756C326.679 42.3814 325.298 39.5984 324.95 36.6019C324.535 33.1532 325.865 30.4261 327.93 27.805C328.081 27.893 328.255 27.9354 328.43 27.9269C328.604 27.9184 328.773 27.8594 328.915 27.7572C329.057 27.6549 329.166 27.5138 329.229 27.3509C329.292 27.1879 329.307 27.0103 329.27 26.8394C329.09 26.0011 328.398 25.3856 328.111 24.6004C327.941 23.986 327.902 23.3432 327.995 22.7129C328.088 22.0825 328.313 21.4785 328.653 20.9394C330.547 17.9045 333.42 20.1011 335.953 20.706C337.687 21.1198 338.517 20.0587 339.241 18.6367C339.826 17.5013 340.305 16.09 341.454 15.3896C342.859 14.5407 344.423 15.0501 345.785 15.6549C347.721 16.5144 349.285 17.2466 351.371 16.334C352.244 15.952 353.031 15.3896 353.861 14.9227C354.641 14.4974 355.522 14.2914 356.411 14.3269C357.299 14.3624 358.161 14.6381 358.905 15.1243L358.905 15.0819Z" fill="url(#paint21_linear_17_1336)"/>
<path d="M354.967 39.6925C355.244 41.7844 356.312 44.504 353.878 45.7173C352.758 46.2821 351.977 45.6441 350.868 45.7801C350.726 45.7736 350.584 45.7972 350.452 45.8494C350.319 45.9016 350.199 45.9813 350.098 46.0834C349.8 46.4181 349.861 47.0039 349.831 47.4222C349.777 48.4847 349.605 49.5374 349.317 50.5602C348.875 51.9304 348.002 53.2274 346.431 53.2065C345.28 53.2065 344.571 52.286 343.678 51.7317C343.556 51.6548 343.415 51.614 343.272 51.614C343.129 51.614 342.988 51.6548 342.866 51.7317C341.767 52.5161 341.51 55.1415 339.661 53.991C338.141 53.0391 337.812 50.7484 337.494 49.1272C337.422 48.8029 336.898 48.9075 336.929 49.2318C337.134 51.3865 337.371 54.2315 339.374 55.5076C339.708 55.753 340.108 55.8903 340.52 55.9015C340.932 55.9127 341.338 55.7973 341.685 55.5704C342.164 55.2302 342.593 54.8216 342.959 54.357C343.129 54.0841 343.283 53.8012 343.421 53.5098C344.197 54.291 345.197 54.8003 346.277 54.9637C347.341 55.0737 348.404 54.7503 349.235 54.0642C350 53.3831 350.571 52.5053 350.889 51.5225C351.136 50.8122 351.278 50.0684 351.31 49.3155C351.31 48.6251 351.104 47.7883 351.197 47.1294C350.755 46.847 350.848 46.8156 351.474 47.0457C351.833 47.139 352.196 47.2123 352.563 47.2653C353.022 47.3438 353.491 47.3438 353.95 47.2653C354.787 47.0432 355.517 46.5192 356.004 45.7905C357.329 43.9601 357.689 40.8222 355.901 39.18C355.593 38.9185 354.895 39.1591 354.967 39.6925Z" fill="url(#paint22_linear_17_1336)"/>
<path d="M354.068 21.0989C353.956 21.1591 353.867 21.2459 353.813 21.3485C353.759 21.4511 353.742 21.5649 353.764 21.6756C353.787 21.7863 353.847 21.8889 353.938 21.9707C354.029 22.0525 354.147 22.1097 354.277 22.1351C354.969 22.25 355.67 22.3261 356.375 22.3631C356.806 22.5519 357.179 22.8239 357.462 23.157C357.746 23.49 357.932 23.8748 358.007 24.2801C358.191 25.4614 357.835 25.534 357.185 26.6635C357.111 26.7982 356.903 26.85 356.853 27.0261C356.784 27.1971 356.762 27.3791 356.787 27.5585C356.813 27.7379 356.886 27.9101 357.001 28.0624C357.129 28.2204 357.282 28.3633 357.455 28.4872L357.86 28.7981C358.964 29.4717 358.559 30.2903 356.633 31.2747C356.044 31.1089 355.7 31.9172 356.252 32.1451C356.64 32.2826 357.057 32.3503 357.477 32.3439C357.897 32.3375 358.311 32.2571 358.692 32.1078C359.073 31.9586 359.413 31.7438 359.69 31.4772C359.967 31.2107 360.176 30.8981 360.302 30.5597C360.467 30.2196 360.523 29.8484 360.462 29.4842C360.402 29.12 360.228 28.7759 359.958 28.4872C359.723 28.1653 359.41 27.8897 359.038 27.679C358.974 27.5787 358.886 27.4906 358.78 27.4199C360.314 26.2904 360.277 23.7724 359.553 22.3113C358.633 20.3321 356.105 20.1974 354.068 21.0989Z" fill="url(#paint23_linear_17_1336)"/>
<path d="M332.077 27.3142C329.392 27.9806 328.536 31.4156 328.524 33.8512C328.451 34.8407 328.739 35.8233 329.337 36.6189C329.934 37.4144 330.8 37.9695 331.776 38.1824C331.259 38.7961 330.988 39.577 331.013 40.3767C331.136 41.3881 331.64 42.3158 332.425 42.9731C333.263 43.6786 334.317 44.0828 335.415 44.1203C336.513 44.1578 337.592 43.8265 338.478 43.1799C338.755 42.9961 338.559 42.5136 338.235 42.6399C337.527 42.9466 336.752 43.0675 335.984 42.991C335.216 42.9146 334.48 42.6433 333.848 42.2034C333.576 42.019 333.345 41.7805 333.17 41.503C332.995 41.2255 332.88 40.9149 332.832 40.591C332.784 40.2671 332.804 39.9368 332.892 39.6211C332.979 39.3054 333.131 39.0111 333.339 38.7568C333.489 38.5156 333.698 38.3432 333.848 38.0675C333.897 37.9567 333.922 37.8367 333.92 37.7156C333.918 37.5945 333.89 37.4753 333.837 37.3661C333.784 37.257 333.708 37.1604 333.614 37.0832C333.52 37.006 333.411 36.9498 333.293 36.9186C332.135 36.6199 331.198 36.7463 330.561 35.3562C330.259 34.5523 330.194 33.6792 330.376 32.8402C330.656 31.1095 331.464 29.5056 332.691 28.2448C332.768 28.1484 332.812 28.0303 332.818 27.9074C332.824 27.7844 332.79 27.6628 332.722 27.5599C332.654 27.4569 332.556 27.3777 332.44 27.3336C332.324 27.2895 332.197 27.2828 332.077 27.3142Z" fill="url(#paint24_linear_17_1336)"/>
<path d="M342.941 23.957C342.582 24.0146 342.237 24.1495 341.926 24.3537C341.616 24.558 341.346 24.8275 341.133 25.1463C340.921 25.4651 340.769 25.8268 340.688 26.21C340.606 26.5933 340.596 26.9903 340.659 27.3777C340.659 27.7789 340.825 28.159 340.883 28.5496C340.89 28.6428 340.906 28.7349 340.932 28.8241C340.889 28.8363 340.849 28.8579 340.815 28.8875C340.278 29.257 339.556 29.0564 339.059 29.6371C337.966 30.9145 339.127 32.6566 339.771 33.8601C339.995 34.2613 340.522 33.8601 340.337 33.4801C340.034 32.8466 339.361 31.9175 339.508 31.189C339.713 29.7638 340.63 30.3655 341.273 30.2916C341.751 30.2389 342.063 30.1438 342.249 29.6371C342.59 28.8664 342.102 27.9267 342.171 27.1138C342.395 24.3899 345.009 26.702 345.946 27.4622C346.052 27.5605 346.185 27.6192 346.325 27.6296C346.465 27.64 346.604 27.6016 346.722 27.52C346.84 27.4384 346.93 27.318 346.98 27.1764C347.03 27.0348 347.037 26.8797 346.999 26.7337C346.648 24.8861 344.57 23.7353 342.941 23.957Z" fill="url(#paint25_linear_17_1336)"/>
<path d="M345.82 37.8256C345.512 38.4933 345.714 40.3263 345.213 40.7391C344.712 41.1518 342.232 38.8089 342.355 37.7649C342.355 37.4372 342.03 37.3279 341.995 37.6435C341.946 38.1329 341.991 38.6314 342.125 39.0893C342.26 39.5472 342.478 39.9486 342.76 40.2535C343.375 41.164 344.202 42.3779 345.169 42.4386C346.541 42.5236 347.165 39.7315 346.998 38.2019C346.988 38.0159 346.935 37.839 346.847 37.6973C346.759 37.5556 346.641 37.4565 346.509 37.4145C346.378 37.3724 346.24 37.3896 346.115 37.4636C345.991 37.5376 345.888 37.6645 345.82 37.8256Z" fill="url(#paint26_linear_17_1336)"/>
<path d="M391.258 9.36163C397.134 3.46902 397.506 -4.82466 397.506 -12.5626C397.559 -21.2745 396.847 -29.9746 395.377 -38.5656C394.632 -42.7596 393.802 -47.3206 391.95 -51.1476C391.102 -52.9295 389.884 -54.5157 388.373 -55.803C387.973 -56.1279 387.553 -56.429 387.117 -56.7047C385.73 -57.8083 384.022 -58.4474 382.242 -58.5291C379.432 -58.5377 376.627 -58.2885 373.864 -57.7847C371.464 -57.4512 369.117 -56.8169 366.881 -55.8974C361.573 -53.9804 356.868 -50.7268 353.234 -46.4608C350.121 -42.5394 348.129 -37.8696 347.464 -32.9351C345.804 -23.3413 348.87 -10.9165 356.129 -4.04876C356.264 -3.92551 356.429 -3.83881 356.608 -3.79712C356.712 -3.28861 356.851 -2.78765 357.024 -2.29775C357.75 -0.196846 358.752 1.80169 360.004 3.64727C362.468 7.24959 365.884 10.1209 369.883 11.9514C376.515 14.7929 385.871 14.7824 391.258 9.36163ZM380.166 -57.2709C378.939 -56.8585 377.903 -56.0248 377.249 -54.9223C377.081 -54.5832 376.892 -54.2542 376.685 -53.9367C376.685 -54.0101 375.471 -54.3141 375.556 -54.3141C374.711 -54.4184 373.853 -54.336 373.044 -54.073C372.252 -53.8329 371.526 -53.4168 370.923 -52.857C370.319 -52.2971 369.854 -51.6083 369.563 -50.8436C369.366 -50.0696 369.106 -49.3123 368.786 -48.5788C368.743 -48.6224 368.687 -48.6517 368.627 -48.6627C364.784 -49.6483 359.802 -46.9851 361.079 -42.5814C360.685 -42.7905 360.25 -42.9155 359.803 -42.9483C359.356 -42.9811 358.907 -42.9208 358.486 -42.7715C358.064 -42.6222 357.679 -42.3871 357.355 -42.0816C357.032 -41.776 356.778 -41.4069 356.608 -40.9981C356.348 -40.4356 356.24 -39.8161 356.296 -39.2002C356.352 -38.5844 356.57 -37.9935 356.928 -37.4856C357.089 -37.3024 357.268 -37.134 357.46 -36.9823C356.785 -36.9961 356.117 -36.8372 355.523 -36.521C355.046 -36.293 354.672 -35.898 354.476 -35.4132C354.279 -34.9284 354.272 -34.3888 354.458 -33.8997L354.458 -33.8158C353.512 -33.3425 352.787 -32.5274 352.436 -31.5406C352.371 -31.077 352.447 -30.605 352.653 -30.1835C352.86 -29.7621 353.187 -29.4099 353.596 -29.171L353.958 -28.8774C353.179 -28.2291 352.687 -27.3079 352.585 -26.3085C352.512 -25.3045 352.624 -24.2958 352.915 -23.3308C353.085 -22.1984 352.287 -21.3806 352.084 -20.3216C351.986 -19.8835 351.98 -19.43 352.068 -18.9897C352.156 -18.5494 352.335 -18.1318 352.595 -17.7632C353.191 -16.9139 354.288 -16.7147 354.629 -15.7291C354.969 -14.7435 355.118 -13.6321 356.055 -13.3385C355.927 -11.5896 355.988 -9.83229 356.236 -8.09599C356.236 -7.66611 356.236 -7.22573 356.236 -6.79585C352.862 -10.8003 350.58 -15.5851 349.604 -20.699C348.363 -26.3416 348.513 -32.1948 350.041 -37.7687C352.83 -48.0965 364.007 -55.8869 374.524 -56.9459C376.396 -57.1706 378.28 -57.2792 380.166 -57.2709ZM368.254 -47.6666C367.839 -46.9184 367.555 -46.1067 367.413 -45.2655C367.115 -43.1685 368.371 -42.12 369.457 -40.5053C370.245 -39.3729 370.149 -37.5276 370.745 -36.2169C371.043 -35.407 371.515 -34.6701 372.129 -34.057C372.675 -33.6592 373.304 -33.387 373.97 -33.2601C373.066 -32.9246 372.161 -32.5891 371.267 -32.2116C370.394 -35.1684 367.573 -38.0833 365.135 -39.8133C363.985 -40.6311 362.325 -40.8618 361.846 -42.4555C361.672 -43.2452 361.765 -44.0693 362.111 -44.8019C362.457 -45.5346 363.037 -46.1356 363.762 -46.5132C365.199 -47.3521 366.892 -47.0375 368.254 -47.6666ZM360.536 -38.3978C360.136 -37.9916 359.86 -37.483 359.738 -36.9299C359.451 -37.1291 359.142 -37.2969 358.833 -37.4751C358.434 -37.6342 358.058 -37.8458 357.716 -38.1042C357.501 -38.377 357.355 -38.6956 357.288 -39.0344C357.221 -39.3731 357.237 -39.7225 357.332 -40.0545C357.426 -40.6192 357.73 -41.1293 358.184 -41.4859C358.639 -41.8424 359.211 -42.0198 359.791 -41.9837C360.407 -41.9026 361.006 -41.7294 361.569 -41.4699C362.495 -40.2327 364.113 -39.7084 365.305 -38.597C363.868 -39.2995 361.771 -39.7189 360.568 -38.3978L360.536 -38.3978ZM370.117 -31.7608L369.372 -31.4462C368.662 -31.1317 367.981 -30.7822 367.328 -30.3977C367.151 -30.6496 366.931 -30.8695 366.679 -31.0478C365.114 -32.0626 363.607 -33.1617 362.165 -34.3401C361.729 -34.7595 360.739 -35.787 360.984 -36.542C361.163 -36.9497 361.454 -37.3002 361.825 -37.5539C362.195 -37.8076 362.63 -37.9546 363.081 -37.9784C364.502 -37.7906 365.818 -37.1369 366.817 -36.1226C367.647 -35.3781 368.392 -34.5498 369.159 -33.7424C369.535 -33.1019 369.873 -32.4402 370.17 -31.7608L370.117 -31.7608ZM366.104 -29.6638C365.444 -29.2339 364.805 -28.7725 364.188 -28.2902C363.312 -29.971 361.898 -31.32 360.164 -32.1277C359.036 -32.7044 357.801 -32.8722 356.63 -33.344C356.311 -33.4391 356.006 -33.5767 355.725 -33.7529C355.555 -35.2208 355.97 -35.9548 356.97 -35.9758C357.652 -36.1382 358.364 -36.1382 359.046 -35.9758L359.749 -35.6507C359.749 -35.6507 359.813 -35.6507 359.834 -35.6507C360.717 -33.365 364.56 -31.4043 366.125 -29.6638L366.104 -29.6638ZM354.778 -30.1041C354.717 -29.9837 354.671 -29.8571 354.639 -29.7267C353.958 -30.209 353.234 -30.6913 353.734 -31.5511C354.134 -32.1261 354.648 -32.6149 355.246 -32.9875C356.475 -32.4142 357.745 -31.9306 359.046 -31.5406C360.033 -31.0793 360.93 -30.4512 361.697 -29.6847C359.376 -31.1526 356.055 -32.4633 354.831 -30.1041L354.778 -30.1041ZM363.294 -27.5248C362.687 -26.9901 362.112 -26.4239 361.558 -25.8367C361.291 -25.9547 361.013 -26.0495 360.728 -26.1198C359.486 -26.4301 358.288 -26.8915 357.162 -27.4934C356.632 -27.7957 356.177 -28.2113 355.831 -28.7096C356.193 -30.0832 356.896 -30.576 357.96 -30.1775C358.462 -30.0759 358.953 -29.9321 359.429 -29.7476C360.651 -29.2835 361.824 -28.7041 362.932 -28.0176C363.052 -27.835 363.183 -27.6599 363.325 -27.4934L363.294 -27.5248ZM360.696 -24.8511C360.355 -24.4422 360.025 -24.0228 359.727 -23.5929C357.95 -21.0879 356.768 -18.2211 356.268 -15.2049C356.055 -15.9074 356.183 -16.8405 355.746 -17.4382C354.99 -18.4867 353.617 -19.0214 354.022 -20.5837C354.366 -21.348 354.522 -22.1813 354.479 -23.0162C354.341 -23.7292 353.905 -24.3269 353.809 -25.1132C353.692 -26.0254 353.809 -27.9652 354.948 -28.437C355.31 -27.8994 355.764 -27.4276 356.289 -27.0425C357.05 -26.4751 357.884 -26.0097 358.769 -25.6585C359.323 -25.3334 360.1 -25.1447 360.728 -24.8511L360.696 -24.8511ZM383.54 -38.1042C381.45 -36.4732 379.111 -35.1781 376.61 -34.2667C376.6 -34.3784 376.566 -34.4865 376.509 -34.5834C376.451 -34.6804 376.373 -34.7638 376.28 -34.8278C376.187 -34.8919 376.08 -34.9349 375.968 -34.9539C375.856 -34.9729 375.741 -34.9673 375.631 -34.9377C374.876 -34.8411 374.109 -34.9656 373.426 -35.2957C372.742 -35.6257 372.173 -36.1467 371.788 -36.7936C371.16 -37.8421 371.405 -38.7543 371.149 -39.8867C370.956 -40.5457 370.654 -41.1691 370.255 -41.7321C369.873 -42.1596 369.582 -42.6582 369.399 -43.1985C369.217 -43.7388 369.146 -44.3098 369.191 -44.8776C369.488 -45.8158 369.986 -46.6808 370.649 -47.415C371.123 -48.2877 371.423 -49.2414 371.533 -50.225C372.118 -52.322 374.247 -52.7309 376.153 -52.7309C376.908 -52.7309 377.057 -52.6155 377.632 -53.2027C378.207 -53.7899 378.505 -54.8069 379.261 -55.436C380.19 -56.1927 381.379 -56.5681 382.582 -56.4845C383.541 -56.3992 384.485 -56.1949 385.392 -55.8764C386.595 -55.0399 387.444 -53.7973 387.777 -52.3849C389.203 -47.1424 387.894 -41.6377 383.572 -38.1042L383.54 -38.1042ZM368.733 8.75349C363.174 5.30256 359.187 -0.134955 357.609 -6.41839C356.769 -11.2121 357.61 -16.1447 359.993 -20.4054C362.377 -24.6661 366.161 -28.0013 370.724 -29.863C373.566 -31.0478 376.568 -31.8656 379.41 -33.0085C381.679 -34.0067 383.773 -35.3513 385.616 -36.9928C389.48 -40.3375 390.885 -45.3809 390.289 -50.2774L390.289 -50.529C390.523 -50.0048 390.736 -49.4805 390.917 -48.9458C392.215 -44.8184 393.145 -40.5874 393.696 -36.3008C394.765 -28.7726 395.309 -21.1811 395.324 -13.5797C395.324 -6.33451 395.324 1.56074 390.002 7.26462C384.679 12.9685 374.907 12.3499 368.733 8.75349Z" fill="url(#paint27_linear_17_1336)"/>
<path d="M203.369 51.9956C204.273 52.3237 205.222 52.5059 206.182 52.5356C211.485 52.6838 215.037 46.9343 217.361 42.8683C218.93 39.9817 220.356 37.0167 221.632 33.9845C222.351 32.3539 223.143 30.808 223.924 29.1774C224.493 28.3289 224.902 27.3813 225.133 26.382C225.133 25.2596 224.341 24.8149 223.685 24.0208C223.046 23.3363 222.662 22.4477 222.597 21.507C222.533 20.5664 222.792 19.6321 223.33 18.8642C224.278 17.4135 225.737 16.7465 226.998 15.6135C227.949 14.7856 228.71 13.7555 229.227 12.5958C231.811 6.99446 232.457 0.567248 234.436 -5.26701C235.145 -7.38471 236.916 -10.2436 235.291 -12.3613C234.394 -13.2951 233.29 -13.996 232.071 -14.4049C230.675 -15.019 229.29 -15.6755 227.904 -16.2473C226.268 -16.9038 224.664 -17.5708 223.07 -18.365C222.186 -18.9007 221.263 -19.3679 220.309 -19.7627C219.998 -19.8515 219.668 -19.8434 219.362 -19.7396C219.055 -19.6358 218.786 -19.441 218.59 -19.1803L217.913 -18.4497C217.486 -18.0897 217.09 -17.6556 216.673 -17.2638C215.631 -16.3214 214.694 -15.3261 213.735 -14.3202C211.603 -12.0613 209.443 -9.83066 207.255 -7.62825C206.276 -6.63293 205.328 -5.61643 204.275 -4.69523C203.495 -4.12407 202.868 -3.36321 202.452 -2.48224C202.046 -1.42339 202.129 -0.22689 201.827 0.863724C201.452 2.45697 200.664 3.91924 199.545 5.09912C199.207 5.55316 198.741 5.89098 198.208 6.06705C197.675 6.24312 197.102 6.24898 196.566 6.08386C195.756 5.85397 194.914 5.76799 194.076 5.82973C193.034 6.06268 192.367 7.12153 191.721 7.85213C191.075 8.58274 190.263 9.50394 189.638 10.404C187.95 12.7228 186.252 15.0311 184.512 17.3182C183.647 18.4618 182.762 19.5736 181.939 20.7595C181.428 21.5007 181.032 21.9454 181.168 22.8243C179.719 25.3337 180.699 28.5421 181.459 31.2951C182.422 34.5366 183.977 37.5648 186.043 40.2212C190.096 45.5578 196.347 51.6144 203.369 51.9956ZM218.309 -16.7026C217.892 -15.5273 217.079 -14.2566 216.756 -13.3354C216.142 -11.5989 215.506 -9.86242 214.819 -8.14708C213.371 -4.52581 211.693 -0.957493 210.12 2.58965C206.942 9.52512 203.609 16.3547 200.744 23.4172C198.264 29.5056 195.274 35.6787 195.639 42.4765C195.854 44.8415 196.87 47.0571 198.514 48.7449C197.52 48.2915 196.562 47.7605 195.649 47.1566C192.879 45.2374 190.386 42.9352 188.242 40.3165C186.287 38.0145 184.679 35.4312 183.47 32.6504C182.784 30.9695 182.247 29.2295 181.866 27.4514C181.543 26.0642 181.476 24.6281 181.668 23.216C181.754 23.2005 181.832 23.153 181.886 23.0825C181.94 23.0121 181.966 22.9238 181.959 22.8349C181.855 21.6384 184.345 19.6583 185.085 18.8324C185.825 18.0065 186.721 16.8524 187.544 15.8782C189.158 13.9511 190.669 11.8864 192.451 10.0969C192.951 9.57806 193.774 8.39215 194.534 8.19097C195.295 7.98979 196.733 8.72039 197.66 8.77333C199.389 8.85804 200.921 7.31212 201.963 6.11562C203.33 4.4687 204.144 2.42088 204.286 0.270768C204.226 -0.434921 204.244 -1.14515 204.338 -1.84693C204.646 -2.51561 205.107 -3.09999 205.682 -3.55167C206.588 -4.47287 207.484 -5.41525 208.391 -6.34704C210.224 -8.21061 212.047 -10.0742 213.839 -11.9801C214.881 -13.039 215.86 -14.1508 216.913 -15.1567C217.309 -15.6543 217.798 -16.2049 218.309 -16.7026ZM204.577 50.6085C204.49 50.5282 204.381 50.4765 204.265 50.4602L204.119 50.4602C202.193 49.5871 200.505 48.2496 199.202 46.5637C197.118 43.8848 197.535 40.2106 198.16 37.034C198.739 34.2437 199.573 31.5143 200.65 28.8809C202.806 23.3749 204.9 17.8159 207.172 12.3522C209.443 6.88858 211.974 1.36139 214.36 -4.13404C215.579 -6.95058 216.621 -9.80947 217.684 -12.679C218.156 -13.9737 218.723 -15.2302 219.382 -16.4379C219.641 -16.8506 219.848 -17.2954 219.997 -17.7614C220.34 -17.5497 220.757 -17.2532 220.84 -17.2214C221.434 -16.9144 222.028 -16.6179 222.622 -16.3214C225.32 -14.9767 228.123 -13.8225 230.863 -12.5519C231.613 -12.2025 233.332 -11.6095 233.717 -10.7624C234.103 -9.91536 233.624 -9.08946 233.394 -8.38003C232.894 -6.83411 232.353 -5.33055 231.915 -3.76345C231.071 -0.63984 230.467 2.5367 229.633 5.66031C228.967 8.13802 228.487 11.1557 226.904 13.2523C225.32 15.3488 222.976 16.0159 221.601 18.1547C221.02 19.0573 220.691 20.1025 220.647 21.1798C220.603 22.2571 220.846 23.3265 221.351 24.2749C221.6 24.6759 221.886 25.0518 222.205 25.3973C222.81 26.0961 222.914 25.9373 222.851 26.8267C222.789 27.7161 221.684 29.315 221.236 30.2786C218.882 35.3822 217.163 40.8671 213.944 45.5366C212.308 47.8978 209.849 50.8308 206.776 50.9685C206.028 50.9781 205.284 50.8563 204.577 50.6085Z" fill="url(#paint28_linear_17_1336)"/>
<path d="M211.269 37.3486C216.36 36.7121 219.107 30.1851 216.36 25.9776C215.052 23.9709 212.915 23.6149 210.67 24.1543C209.4 24.2745 208.18 24.7052 207.12 25.4077C206.06 26.1101 205.193 27.0622 204.598 28.1784C204.105 29.2216 203.903 30.3759 204.012 31.5223C204.12 32.6686 204.536 33.7656 205.216 34.7C205.896 35.6344 206.815 36.3724 207.879 36.838C208.943 37.3036 210.113 37.4798 211.269 37.3486ZM205.884 28.7826C206.192 27.8942 206.744 27.1081 207.477 26.5119C208.211 25.9156 209.097 25.5327 210.037 25.4058C210.909 25.1993 211.814 25.17 212.697 25.3195C213.482 25.5352 214.234 26.3983 214.997 26.7867C215.086 26.818 215.182 26.818 215.27 26.7867C216.36 30.5735 212.588 33.864 209.296 35.0938C209.067 35.1802 209.165 35.5793 209.405 35.5685C210.764 35.4796 212.074 35.0326 213.199 34.2738C214.324 33.515 215.224 32.472 215.804 31.2531C215.594 32.3063 215.085 33.2781 214.335 34.0541C213.586 34.8301 212.628 35.378 211.574 35.6333C207.432 36.4208 204.532 32.6125 205.884 28.7826Z" fill="url(#paint29_linear_17_1336)"/>
<path d="M222.238 9.58997C225.331 7.6536 227.402 1.10632 224.394 -1.94266C223.921 -2.38493 223.366 -2.70033 222.77 -2.86523C222.173 -3.03012 221.552 -3.04023 220.952 -2.89479C220.068 -2.83426 219.219 -2.4808 218.512 -1.87847C216.686 -0.391424 214.681 1.56634 214.199 4.1767C213.215 9.48299 218.578 11.9008 222.238 9.58997ZM215.4 4.91487C215.551 2.72174 216.989 1.05283 218.379 -0.284442C218.663 -0.562595 218.947 -0.862143 219.24 -1.1403C220.089 -1.72568 221.096 -1.94592 222.077 -1.76079C222.509 -1.68925 222.92 -1.50621 223.278 -1.22588C220.356 -2.2957 217.377 1.38447 216.242 4.21949C216.119 4.51904 216.516 4.64741 216.667 4.43345C218.408 2.05846 220.923 -1.62171 224.063 -0.198857C225.009 1.94078 223.988 5.57816 222.692 7.0866C220.592 9.63276 215.069 9.52578 215.4 4.91487Z" fill="url(#paint30_linear_17_1336)"/>
<path d="M203.372 46.731C203.291 46.6218 203.243 46.4861 203.234 46.3438C203.225 46.2014 203.257 46.0596 203.325 45.939C203.392 45.8184 203.492 45.7251 203.609 45.6728C203.727 45.6204 203.856 45.6117 203.978 45.6479C205.905 46.2952 208.383 43.8551 207.524 41.5893C206.941 40.0455 205.421 40.0953 204.33 40.9544C203.903 41.2388 203.547 41.642 203.297 42.1258C203.046 42.6095 202.909 43.1577 202.899 43.7182C202.899 43.8073 202.867 43.8928 202.812 43.9559C202.756 44.0189 202.68 44.0543 202.601 44.0543C202.522 44.0543 202.447 44.0189 202.391 43.9559C202.335 43.8928 202.304 43.8073 202.304 43.7182C202.265 42.8309 202.462 41.9508 202.868 41.1902C203.274 40.4296 203.871 39.823 204.584 39.448C205.279 39.049 206.083 38.9661 206.83 39.2161C207.578 39.4661 208.212 40.0302 208.604 40.7925C208.979 41.5809 209.112 42.4876 208.982 43.3707C208.853 44.2538 208.468 45.0634 207.888 45.6728C206.83 47.0547 204.793 48.3619 203.372 46.731Z" fill="url(#paint31_linear_17_1336)"/>
<path d="M251.318 9.71552C250.296 9.49033 249.245 9.43649 248.206 9.55609C245.113 10.0511 242.184 11.3143 239.677 13.2354C237.169 15.1566 235.158 17.6773 233.82 20.5777C232.744 23.4347 232.366 26.518 232.72 29.5587C232.907 34.0742 233.689 38.5431 235.044 42.8442C236.641 48.5624 239.853 53.669 244.275 57.522C246.166 59.2876 248.528 60.4348 251.059 60.8168C253.341 61.0506 256.515 61.125 258.537 59.7539C260.9 59.8056 263.218 59.0955 265.165 57.7239C267.328 55.9314 269.057 53.6506 270.217 51.0599C272.872 44.938 273.328 37.4131 272.768 30.866C272.303 24.5598 269.915 18.5629 265.943 13.7224C262.603 9.72615 256.183 7.36665 251.318 9.71552ZM246.879 57.1819C242.045 53.919 238.633 48.5835 236.766 43.0568C236.454 42.1533 236.164 41.2287 235.884 40.2827C235.355 37.6682 234.847 35.0536 234.598 32.3965C234.349 29.7394 233.872 26.5084 234.401 23.7662C235.065 20.9837 236.388 18.4119 238.253 16.2782C240.119 14.1444 242.468 12.5147 245.095 11.533C246.825 10.9421 248.671 10.7996 250.467 11.1185C250.566 11.2789 250.72 11.3953 250.899 11.4445C251.078 11.4937 251.268 11.4722 251.432 11.3842C251.874 11.5287 252.299 11.7248 252.698 11.9687C253.289 12.3445 253.773 12.8736 254.101 13.5025C254.429 14.1314 254.589 14.8379 254.565 15.5505C254.5 16.1661 254.671 16.7833 255.042 17.2723C256.318 18.7922 258.589 19.2279 260.166 20.3652C261.742 21.5024 261.607 23.2029 261.037 24.9035C260.778 25.6581 260.373 26.3064 260.653 27.1248C261.172 28.6978 263.392 29.665 264.439 30.7703C265.487 31.8757 266.441 33.0661 266.099 34.5434C265.705 36.2333 264.024 36.9029 262.707 37.6044C261.784 38.0827 260.394 38.7948 260.55 40.0808C260.757 41.6857 262.883 42.4084 263.661 43.6519C265.539 46.6066 262.852 48.4347 260.404 49.1893C259.077 49.6145 258.164 50.2522 258.33 51.8358C258.496 53.4194 259.201 54.3972 258.838 55.9596C258.662 56.7373 258.246 57.4362 257.652 57.953C257.058 58.4698 256.317 58.777 255.54 58.8293C252.55 59.4431 249.444 58.8532 246.868 57.1819L246.879 57.1819ZM265.964 16.5814C269.121 21.1749 270.922 26.6023 271.15 32.2158C271.316 37.7319 271.202 43.2799 269.532 48.5941C268.655 51.336 267.139 53.8169 265.113 55.8214C263.589 57.3061 261.681 58.3129 259.616 58.723C260.224 57.8841 260.613 56.9005 260.748 55.8648C260.882 54.8291 260.757 53.7754 260.384 52.803C260.135 52.0377 259.813 51.23 260.529 50.6773C260.99 50.4775 261.47 50.3245 261.96 50.2203C262.965 49.84 263.878 49.2418 264.636 48.4666C265.237 47.7448 265.584 46.838 265.624 45.8904C265.663 44.9429 265.392 44.0091 264.854 43.2374C264.342 42.539 263.705 41.9474 262.977 41.4944C262.178 40.8886 261.307 40.0702 262.168 39.0711C262.551 38.6247 263.63 38.4759 264.17 38.2421C265.964 37.4662 267.603 36.1164 267.769 33.9907C267.945 31.6206 265.943 29.4205 264.242 28.1026C263.65 27.7787 263.105 27.3708 262.624 26.891C262.199 26.2958 262.458 26.0513 262.676 25.403C263.175 24.2117 263.333 22.8994 263.132 21.6193C262.531 19.2492 260.404 18.3564 258.402 17.4742C257.5 17.081 256.276 16.6771 255.944 15.5824C255.876 15.0499 255.835 14.5143 255.82 13.9775C255.597 12.9238 255.052 11.9706 254.264 11.2566C254.039 11.0506 253.8 10.8623 253.548 10.6933C255.501 10.4595 257.481 10.6515 259.357 11.2566C262.107 12.1655 264.447 14.0548 265.954 16.5814L265.964 16.5814Z" fill="url(#paint32_linear_17_1336)"/>
<path d="M246.148 23.9341C244.259 24.0323 243.655 25.2228 243.208 26.8502C243.186 26.9587 243.207 27.0714 243.266 27.1656C243.326 27.2597 243.42 27.3283 243.529 27.3574C243.638 27.3866 243.755 27.3741 243.855 27.3225C243.955 27.2709 244.032 27.184 244.069 27.0795C244.762 24.6221 246.394 24.6003 247.813 25.4849C247.724 25.6058 247.677 25.7512 247.679 25.9C247.612 27.9423 245.321 29.0673 245.444 31.1315C245.569 31.9414 245.87 32.7158 246.327 33.4032C246.74 33.9276 247.037 34.5311 247.196 35.1745C247.356 35.818 247.376 36.487 247.254 37.1384C246.97 38.458 247.11 39.831 247.654 41.0702C248.198 42.3094 249.12 43.3545 250.295 44.0628C249.972 44.1615 249.632 44.1921 249.297 44.1526C248.962 44.1131 248.639 44.0042 248.35 43.8334C247.017 42.9123 245.901 41.7246 245.075 40.3494C243.071 37.3051 241.837 33.8384 241.476 30.2359C241.476 29.9519 240.995 29.9301 241.006 30.2359C241.297 35.4018 242.649 40.2402 246.293 44.1392C249.523 47.6014 253.637 45.2314 254.229 41.0374C255.04 35.97 253.775 30.7946 250.708 26.6317C249.624 25.1573 248.137 23.8358 246.148 23.9341ZM249.624 27.2106C250.588 28.6831 251.34 30.278 251.86 31.9506C252.855 34.9155 253.078 38.0763 252.508 41.1467C252.322 42.0505 251.858 42.8772 251.178 43.5167C249.932 42.5818 248.995 41.3094 248.484 39.8579C248.014 38.1104 249.166 36.4394 248.741 34.7029C248.598 34.2085 248.367 33.7427 248.059 33.3267C247.098 31.8195 246.561 30.8257 247.612 29.0345C248.26 27.9423 248.998 27.5819 249.088 26.5116C249.285 26.7456 249.465 26.9939 249.624 27.2543L249.624 27.2106Z" fill="url(#paint33_linear_17_1336)"/>
</g>
<rect width="376" height="370" transform="matrix(1 0 0 -1 -1 154)" fill="url(#paint34_linear_17_1336)"/>
</g>
<defs>
<linearGradient id="paint0_linear_17_1336" x1="-38.878" y1="37.3908" x2="-29.8645" y2="-41.1474" gradientUnits="userSpaceOnUse">
<stop stop-color="#FF0000"/>
<stop offset="1" stop-color="#FF0000"/>
</linearGradient>
<linearGradient id="paint1_linear_17_1336" x1="-0.26068" y1="17.1968" x2="4.55512" y2="-1.45276" gradientUnits="userSpaceOnUse">
<stop stop-color="#FF0000"/>
<stop offset="1" stop-color="#FF0000"/>
</linearGradient>
<linearGradient id="paint2_linear_17_1336" x1="23.0916" y1="25.6118" x2="25.4995" y2="10.0703" gradientUnits="userSpaceOnUse">
<stop stop-color="#FF0000"/>
<stop offset="1" stop-color="#FF0000"/>
</linearGradient>
<linearGradient id="paint3_linear_17_1336" x1="13.3054" y1="15.5142" x2="14.2767" y2="7.67729" gradientUnits="userSpaceOnUse">
<stop stop-color="#FF0000"/>
<stop offset="1" stop-color="#FF0000"/>
</linearGradient>
<linearGradient id="paint4_linear_17_1336" x1="38.6503" y1="25.6118" x2="39.8543" y2="17.841" gradientUnits="userSpaceOnUse">
<stop stop-color="#FF0000"/>
<stop offset="1" stop-color="#FF0000"/>
</linearGradient>
<linearGradient id="paint5_linear_17_1336" x1="-12.4552" y1="0.368103" x2="-11.9639" y2="-7.55872" gradientUnits="userSpaceOnUse">
<stop stop-color="#FF0000"/>
<stop offset="1" stop-color="#FF0000"/>
</linearGradient>
<linearGradient id="paint6_linear_17_1336" x1="-2.04785" y1="22.2463" x2="-0.490214" y2="10.5173" gradientUnits="userSpaceOnUse">
<stop stop-color="#FF0000"/>
<stop offset="1" stop-color="#FF0000"/>
</linearGradient>
<linearGradient id="paint7_linear_17_1336" x1="12.7735" y1="22.2463" x2="19.4838" y2="-48.7347" gradientUnits="userSpaceOnUse">
<stop stop-color="#FF0000"/>
<stop offset="1" stop-color="#FF0000"/>
</linearGradient>
<linearGradient id="paint8_linear_17_1336" x1="258.852" y1="23.9291" x2="266.333" y2="-36.8184" gradientUnits="userSpaceOnUse">
<stop stop-color="#FF0000"/>
<stop offset="1" stop-color="#FF0000"/>
</linearGradient>
<linearGradient id="paint9_linear_17_1336" x1="273.422" y1="15.5142" x2="275.049" y2="-0.232376" gradientUnits="userSpaceOnUse">
<stop stop-color="#FF0000"/>
<stop offset="1" stop-color="#FF0000"/>
</linearGradient>
<linearGradient id="paint10_linear_17_1336" x1="284.14" y1="2.05225" x2="287.293" y2="-13.2109" gradientUnits="userSpaceOnUse">
<stop stop-color="#FF0000"/>
<stop offset="1" stop-color="#FF0000"/>
</linearGradient>
<linearGradient id="paint11_linear_17_1336" x1="115.059" y1="44.1232" x2="128.628" y2="-26.8886" gradientUnits="userSpaceOnUse">
<stop stop-color="#FF0000"/>
<stop offset="1" stop-color="#FF0000"/>
</linearGradient>
<linearGradient id="paint12_linear_17_1336" x1="153.291" y1="3.73523" x2="153.893" y2="-0.150136" gradientUnits="userSpaceOnUse">
<stop stop-color="#FF0000"/>
<stop offset="1" stop-color="#FF0000"/>
</linearGradient>
<linearGradient id="paint13_linear_17_1336" x1="146.56" y1="7.10052" x2="147.162" y2="3.21516" gradientUnits="userSpaceOnUse">
<stop stop-color="#FF0000"/>
<stop offset="1" stop-color="#FF0000"/>
</linearGradient>
<linearGradient id="paint14_linear_17_1336" x1="139.933" y1="10.4659" x2="141.058" y2="6.83581" gradientUnits="userSpaceOnUse">
<stop stop-color="#FF0000"/>
<stop offset="1" stop-color="#FF0000"/>
</linearGradient>
<linearGradient id="paint15_linear_17_1336" x1="133.097" y1="17.1968" x2="133.699" y2="13.3115" gradientUnits="userSpaceOnUse">
<stop stop-color="#FF0000"/>
<stop offset="1" stop-color="#FF0000"/>
</linearGradient>
<linearGradient id="paint16_linear_17_1336" x1="131.413" y1="8.7832" x2="131.567" y2="6.80575" gradientUnits="userSpaceOnUse">
<stop stop-color="#FF0000"/>
<stop offset="1" stop-color="#FF0000"/>
</linearGradient>
<linearGradient id="paint17_linear_17_1336" x1="138.145" y1="2.05225" x2="138.747" y2="-1.83312" gradientUnits="userSpaceOnUse">
<stop stop-color="#FF0000"/>
<stop offset="1" stop-color="#FF0000"/>
</linearGradient>
<linearGradient id="paint18_linear_17_1336" x1="126.364" y1="5.41779" x2="126.966" y2="1.53242" gradientUnits="userSpaceOnUse">
<stop stop-color="#FF0000"/>
<stop offset="1" stop-color="#FF0000"/>
</linearGradient>
<linearGradient id="paint19_linear_17_1336" x1="139.829" y1="17.1968" x2="140.431" y2="13.3115" gradientUnits="userSpaceOnUse">
<stop stop-color="#FF0000"/>
<stop offset="1" stop-color="#FF0000"/>
</linearGradient>
<linearGradient id="paint20_linear_17_1336" x1="150.029" y1="10.4659" x2="150.33" y2="8.5232" gradientUnits="userSpaceOnUse">
<stop stop-color="#FF0000"/>
<stop offset="1" stop-color="#FF0000"/>
</linearGradient>
<linearGradient id="paint21_linear_17_1336" x1="319.332" y1="66" x2="327.103" y2="3.30506" gradientUnits="userSpaceOnUse">
<stop stop-color="#FF0000"/>
<stop offset="1" stop-color="#FF0000"/>
</linearGradient>
<linearGradient id="paint22_linear_17_1336" x1="335.688" y1="55.9022" x2="338.214" y2="36.3352" gradientUnits="userSpaceOnUse">
<stop stop-color="#FF0000"/>
<stop offset="1" stop-color="#FF0000"/>
</linearGradient>
<linearGradient id="paint23_linear_17_1336" x1="353.341" y1="32.3443" x2="356.859" y2="19.3727" gradientUnits="userSpaceOnUse">
<stop stop-color="#FF0000"/>
<stop offset="1" stop-color="#FF0000"/>
</linearGradient>
<linearGradient id="paint24_linear_17_1336" x1="327.893" y1="44.1232" x2="332.709" y2="25.4736" gradientUnits="userSpaceOnUse">
<stop stop-color="#FF0000"/>
<stop offset="1" stop-color="#FF0000"/>
</linearGradient>
<linearGradient id="paint25_linear_17_1336" x1="338.093" y1="34.0269" x2="340.238" y2="22.4898" gradientUnits="userSpaceOnUse">
<stop stop-color="#FF0000"/>
<stop offset="1" stop-color="#FF0000"/>
</linearGradient>
<linearGradient id="paint26_linear_17_1336" x1="341.666" y1="42.4405" x2="342.569" y2="36.6124" gradientUnits="userSpaceOnUse">
<stop stop-color="#FF0000"/>
<stop offset="1" stop-color="#FF0000"/>
</linearGradient>
<linearGradient id="paint27_linear_17_1336" x1="343.924" y1="13.8329" x2="362.027" y2="-67.6874" gradientUnits="userSpaceOnUse">
<stop stop-color="#FF0000"/>
<stop offset="1" stop-color="#FF0000"/>
</linearGradient>
<linearGradient id="paint28_linear_17_1336" x1="177.013" y1="52.5384" x2="193.606" y2="-29.6523" gradientUnits="userSpaceOnUse">
<stop stop-color="#FF0000"/>
<stop offset="1" stop-color="#FF0000"/>
</linearGradient>
<linearGradient id="paint29_linear_17_1336" x1="203.156" y1="37.3908" x2="205.564" y2="21.8493" gradientUnits="userSpaceOnUse">
<stop stop-color="#FF0000"/>
<stop offset="1" stop-color="#FF0000"/>
</linearGradient>
<linearGradient id="paint30_linear_17_1336" x1="213.357" y1="10.4659" x2="216.089" y2="-4.96485" gradientUnits="userSpaceOnUse">
<stop stop-color="#FF0000"/>
<stop offset="1" stop-color="#FF0000"/>
</linearGradient>
<linearGradient id="paint31_linear_17_1336" x1="201.886" y1="47.4886" x2="203.743" y2="37.9016" gradientUnits="userSpaceOnUse">
<stop stop-color="#FF0000"/>
<stop offset="1" stop-color="#FF0000"/>
</linearGradient>
<linearGradient id="paint32_linear_17_1336" x1="230.111" y1="60.9501" x2="241.978" y2="1.65604" gradientUnits="userSpaceOnUse">
<stop stop-color="#FF0000"/>
<stop offset="1" stop-color="#FF0000"/>
</linearGradient>
<linearGradient id="paint33_linear_17_1336" x1="240.179" y1="45.8058" x2="246.302" y2="21.4863" gradientUnits="userSpaceOnUse">
<stop stop-color="#FF0000"/>
<stop offset="1" stop-color="#FF0000"/>
</linearGradient>
<linearGradient id="paint34_linear_17_1336" x1="188" y1="0" x2="188" y2="370" gradientUnits="userSpaceOnUse">
<stop stop-color="white"/>
<stop offset="1" stop-color="white" stop-opacity="0"/>
</linearGradient>
</defs>
</svg>
